<svg width="1920" height="1080" viewBox="820 230 280 640" fill="none" xmlns="http://www.w3.org/2000/svg">
<rect width="1920" height="1080" fill="url(#paint0_radial_1_4)"/>
<g filter="url(#filter0_f_1_4)">
<ellipse cx="959" cy="845" rx="150" ry="9" fill="url(#paint1_linear_1_4)"/>
</g>
<g filter="url(#filter1_f_1_4)">
<path d="M871.606 845H1052.35L1070 852.389C1070 852.389 1027.4 855.737 963.5 856.852C899.6 857.968 857 852.389 857 852.389L871.606 845Z" fill="url(#paint2_linear_1_4)"/>
</g>
<path d="M1079.96 283.105C1073.52 244.88 1068.46 236.105 1028.46 231.105C983.456 227.605 928.456 228.605 881.456 233.105C853.516 235.78 845.847 250.605 839.956 283.105C825.456 363.105 826.456 465.605 830.956 561.605C832.736 599.563 840.79 732.938 846.456 795.605C848.536 818.605 858.956 844.621 888.956 846.605L889.198 846.621C949.516 850.609 972.033 852.097 1029.46 846.605C1068.66 842.854 1074.19 821.605 1077.46 795.605C1085.86 728.805 1090.62 611.771 1091.96 561.605C1095.46 395.105 1088.46 333.605 1079.96 283.105Z" fill="url(#paint3_linear_1_4)"/>
<g opacity="0.75" filter="url(#filter2_f_1_4)">
<path d="M1020.2 232.043C1013.09 231.366 1005.06 230.859 996 230.5C1005.18 230.586 1013.2 231.146 1020.2 232.043C1052.74 235.14 1066.12 241.795 1071.46 254.105C1076.26 266.105 1079.29 284.271 1080.46 292.605L1086.09 335.757C1086.22 336.739 1086.34 337.69 1086.46 338.605L1086.09 335.757C1082.62 309.903 1073.88 261.931 1067.46 253.105C1064.14 248.549 1054 236.372 1020.2 232.043Z" fill="white"/>
</g>
<g filter="url(#filter3_f_1_4)">
<path d="M854 245.5C866.743 230.33 889.956 233.105 915.456 230.605C877.956 237.105 878.456 237.748 875.456 238.605C852.825 245.071 852.456 257.605 845.456 283.105C841.131 298.863 830.956 376.605 828.956 413.105C828.956 397.605 830.956 367.105 831.956 351.605C832.756 339.205 837.28 303.105 840.456 285.105C841.956 276.605 843.5 258 854 245.5Z" fill="url(#paint4_linear_1_4)"/>
</g>
<g filter="url(#filter4_f_1_4)">
<path d="M854.456 811.105C836.056 684.705 835.123 487.438 836.956 404.605L838.456 480.605C839.29 505.938 840.556 570.205 840.956 596.605C841.456 629.605 855.956 794.605 856.956 804.605C857.956 814.605 863.456 822.105 864.456 822.605C865.456 823.105 864.956 824.605 859.456 819.605C855.056 815.605 854.29 812.271 854.456 811.105Z" fill="url(#paint5_linear_1_4)"/>
</g>
<g filter="url(#filter5_f_1_4)">
<path d="M1070.37 820.105C1088.77 693.705 1089.7 496.438 1087.87 413.605L1084.96 489.105C1084.12 514.438 1082.86 579.705 1082.46 606.105C1081.96 639.105 1068.87 803.605 1067.87 813.605C1066.87 823.605 1061.37 831.105 1060.37 831.605C1059.37 832.105 1059.87 833.605 1065.37 828.605C1069.77 824.605 1070.54 821.271 1070.37 820.105Z" fill="url(#paint6_linear_1_4)"/>
</g>
<path d="M1066.96 277.605C1061.15 241.401 1048.46 239.605 1019.46 236.605C990.456 233.605 982.79 232.605 959.456 232.605C936.123 232.605 918.456 234.681 899.957 236.605C881.457 238.528 862.009 239.931 853.957 278.105C840.456 342.105 818.732 506.105 865.456 579.605C912.181 653.105 996.956 662.105 1052.96 578.605C1108.96 495.105 1073.46 318.105 1066.96 277.605Z" fill="url(#paint7_linear_1_4)"/>
<path d="M851.956 504.105C857.16 535.778 882.457 565.438 890.457 569.605L870.456 586.605C857.256 567.405 848.957 545.105 843.457 519.605C820.957 406.605 854.957 267.605 861.956 253.605C866.994 243.53 891.457 239.771 903.957 241.605C896.623 242.105 881.456 244.605 870.956 252.605C862.629 258.949 862.457 263.605 854.957 310.105C846.457 365.105 840.456 434.105 851.956 504.105Z" fill="url(#paint8_linear_1_4)"/>
<path d="M1057.96 537.605C1026.92 598.605 960.456 608.105 918.956 589.105L900.456 618.105C935.456 640.605 955.729 638.851 976.956 635.105C1002.46 630.605 1053.96 607.605 1076.96 521.605C1095.63 451.781 1075.12 317.105 1062.46 260.105H1053.96C1089.46 450.105 1072.46 509.105 1057.96 537.605Z" fill="url(#paint9_linear_1_4)"/>
<path d="M1052.86 277.148C1048.29 252.648 1044.86 247.648 1015.86 244.148C1015.86 244.148 992.362 240.148 954.362 240.648C916.362 241.148 892.362 246.648 892.362 246.648C874.951 250.13 873.378 256.582 868.438 276.836L868.362 277.148C864.582 292.648 847.011 344.105 853.456 467.148C856.911 533.105 884.862 553.648 898.862 562.148C962.456 608.605 1016.76 566.605 1023.36 562.148C1055.36 540.548 1065.96 496.648 1066.96 467.148C1070.24 370.344 1060.46 317.907 1052.92 277.447L1052.86 277.148Z" fill="url(#paint10_linear_1_4)"/>
<g filter="url(#filter6_ii_1_4)">
<path d="M868.017 409.863C868.25 402.628 873.976 396.818 881.208 396.505C898.263 395.765 929.958 394.605 960.956 394.605C992.086 394.605 1024.39 395.775 1041.68 396.514C1048.92 396.823 1054.66 402.636 1054.9 409.877C1055.34 423.656 1055.96 445.809 1055.96 462.105C1055.96 478.216 1055.35 500.051 1054.91 513.86C1054.67 521.295 1048.63 527.198 1041.19 527.318L960.956 528.605L881.718 527.32C874.281 527.199 868.24 521.296 868.002 513.862C867.56 500.054 866.956 478.217 866.956 462.105C866.956 445.803 867.575 423.641 868.017 409.863Z" fill="#77A67E"/>
</g>
<path d="M960.956 395.605C992.065 395.605 1024.35 396.774 1041.64 397.513C1048.36 397.8 1053.68 403.19 1053.9 409.909C1054.34 423.688 1054.96 445.827 1054.96 462.105C1054.96 478.198 1054.35 500.02 1053.91 513.828C1053.69 520.726 1048.09 526.207 1041.18 526.318L960.956 527.604L881.734 526.32C874.826 526.208 869.222 520.727 869.001 513.83C868.56 500.022 867.956 478.199 867.956 462.105C867.956 445.821 868.574 423.673 869.017 409.895C869.233 403.181 874.544 397.795 881.251 397.504C898.3 396.765 929.979 395.605 960.956 395.605Z" stroke="url(#paint11_linear_1_4)" stroke-width="2"/>
<g opacity="0.6" filter="url(#filter7_f_1_4)">
<path d="M883 462H1039V488C1039 499.046 1030.05 508 1019 508H903C891.954 508 883 499.046 883 488V462Z" fill="url(#paint12_linear_1_4)"/>
</g>
<path d="M880.957 406.605C873.457 415.605 877.956 516.605 877.956 516.605C877.956 516.605 888.957 472.607 934.457 440.605C979.957 408.602 1042.46 404.105 1042.46 404.105C1042.46 404.105 888.457 397.605 880.957 406.605Z" fill="url(#paint13_linear_1_4)"/>
<g opacity="0.4" filter="url(#filter8_f_1_4)">
<path d="M1057.46 407.105C1057.46 399.605 1051.46 396.605 1044.46 395.105C1051.46 394.105 1059.46 395.553 1059.46 403.105C1059.46 413.105 1057.96 481.105 1055.96 507.605C1056.62 476.771 1057.46 416.605 1057.46 407.105Z" fill="white"/>
</g>
<g opacity="0.6" filter="url(#filter9_f_1_4)">
<path d="M873.956 395.61C872.736 395.733 871.515 396.123 870.366 396.665C862.507 402.308 864.552 428.933 865.456 439.11C863.957 429.61 863.956 409.41 863.956 402.61C863.956 401.477 866.813 398.344 870.366 396.665C871.388 395.932 872.576 395.553 873.956 395.61Z" fill="white"/>
</g>
<g filter="url(#filter10_f_1_4)">
<path d="M962.711 389.605C992.175 389.657 1037.96 392.605 1037.96 392.605C1037.96 392.605 992.106 391.117 962.711 391.105C932.727 391.093 884.956 392.605 884.956 392.605C884.956 392.605 932.269 389.552 962.711 389.605Z" fill="#80838E"/>
</g>
<g filter="url(#filter11_i_1_4)">
<rect x="919.956" y="347.605" width="83" height="18" rx="3" fill="#121212"/>
</g>
<path d="M925.456 362.105V351.605H928.956L936.456 360.105H938.956V349.605" stroke="white" stroke-width="4"/>
<path d="M956.456 351.105V360.605H944.456V351.105H956.456Z" stroke="white" stroke-width="3"/>
<path d="M963.92 350H960V362H963.92V357.826L969.52 362H974L967.84 356.261L974 350H969.52L963.92 355.217V350Z" fill="white"/>
<path d="M990 350L983 362.5H987.5L990 358H992.5L994.5 362.5H999L992.5 350H990Z" fill="white"/>
<path d="M991.5 354L992.5 356.25H990.5L991.5 354Z" fill="#121212"/>
<path d="M978.456 349.605V362.605" stroke="white" stroke-width="4"/>
<ellipse cx="961.456" cy="288.105" rx="6.5" ry="43.5" fill="url(#paint14_linear_1_4)"/>
<g filter="url(#filter12_i_1_4)">
<ellipse cx="961.456" cy="256.605" rx="3.5" ry="2" fill="#232438"/>
</g>
<g filter="url(#filter13_i_1_4)">
<ellipse cx="961.456" cy="270.605" rx="3.5" ry="2" fill="#232438"/>
</g>
<g filter="url(#filter14_i_1_4)">
<ellipse cx="961.456" cy="287.605" rx="3.5" ry="2" fill="#232438"/>
</g>
<g filter="url(#filter15_i_1_4)">
<ellipse cx="961.456" cy="303.605" rx="3.5" ry="2" fill="#232438"/>
</g>
<g filter="url(#filter16_i_1_4)">
<ellipse cx="961.456" cy="319.605" rx="3.5" ry="2" fill="#232438"/>
</g>
<g filter="url(#filter17_d_1_4)">
<path d="M1011.46 561.605C1011.46 569.061 988.456 581.105 958.456 581.105C933.051 581.105 909.956 568.561 909.956 561.105C909.956 557.605 933.051 553.605 958.456 553.605C983.862 553.605 1011.46 558.105 1011.46 561.605Z" fill="url(#paint15_linear_1_4)"/>
<path d="M958.456 554.605C971.107 554.605 984.306 555.726 994.331 557.281C999.347 558.059 1003.54 558.94 1006.45 559.834C1007.92 560.283 1009.02 560.721 1009.73 561.125C1010.08 561.328 1010.3 561.497 1010.41 561.617C1010.43 561.642 1010.44 561.663 1010.45 561.677C1010.41 563.058 1009.29 564.922 1006.76 567.028C1004.23 569.122 1000.51 571.28 995.823 573.227C986.449 577.117 973.33 580.105 958.456 580.105C945.908 580.105 933.923 577.004 925.093 572.99C920.676 570.983 917.086 568.763 914.618 566.62C913.383 565.549 912.454 564.516 911.839 563.563C911.231 562.619 910.965 561.806 910.957 561.136C910.974 561.106 911.07 560.925 911.544 560.615C912.122 560.238 913.033 559.827 914.283 559.404C916.768 558.562 920.387 557.745 924.838 557.03C933.729 555.601 945.8 554.605 958.456 554.605Z" stroke="url(#paint16_linear_1_4)" stroke-width="2"/>
</g>
<path d="M937.956 566.605C945.791 568.521 950.391 569.082 958.456 569.105C966.715 569.128 979.456 566.605 979.456 566.605" stroke="#348FAC" stroke-width="4" stroke-linecap="round"/>
<g filter="url(#filter18_di_1_4)">
<path d="M1027.77 568.701C1012.59 582.379 994.536 588.577 987.409 589.966C973.509 593.399 976.07 595.321 976.179 598.819C977.458 607.784 979.283 618.232 979.892 621.715C981.962 633.563 990.043 629.464 997.353 625.755L997.523 625.669C1021.65 613.428 1038.1 595.393 1045.8 585.649C1056.11 572.609 1052.91 572.921 1042.21 566.751C1033.07 561.474 1033.14 564.532 1027.77 568.701Z" fill="url(#paint17_linear_1_4)"/>
<path d="M1027.77 568.701C1012.59 582.379 994.536 588.577 987.409 589.966C973.509 593.399 976.07 595.321 976.179 598.819C977.458 607.784 979.283 618.232 979.892 621.715C981.962 633.563 990.043 629.464 997.353 625.755L997.523 625.669C1021.65 613.428 1038.1 595.393 1045.8 585.649C1056.11 572.609 1052.91 572.921 1042.21 566.751C1033.07 561.474 1033.14 564.532 1027.77 568.701Z" stroke="url(#paint18_linear_1_4)" stroke-width="2"/>
</g>
<path d="M990.433 612.356C990.433 612.356 995.635 602.689 996.15 603.174C996.666 603.658 994.884 610.717 994.884 610.717C994.884 610.717 1002.01 614.497 1002.52 614.981C1003.04 615.465 990.433 612.356 990.433 612.356Z" fill="black"/>
<path d="M1040.45 576.511C1040.45 576.511 1040.12 587.483 1039.45 587.28C1038.77 587.078 1037.2 579.967 1037.2 579.967C1037.2 579.967 1029.14 579.771 1028.47 579.568C1027.79 579.366 1040.45 576.511 1040.45 576.511Z" fill="black"/>
<g filter="url(#filter19_di_1_4)">
<path d="M913.956 585.33C903.033 579.448 899.956 576.877 890.456 569.83C887.456 567.605 885.896 565.973 881.896 567.973C881.563 568.473 879.214 569.376 874.396 572.473C867.396 576.973 868.245 576.533 870.896 582.973C874.396 591.473 885.896 602.973 895.396 610.473C900.587 614.571 902.896 614.348 905.896 610.973C909.896 606.473 911.896 603.473 916.896 596.473C920.618 591.262 920.456 588.83 913.956 585.33Z" fill="url(#paint19_linear_1_4)"/>
<path d="M913.956 585.33C903.033 579.448 899.956 576.877 890.456 569.83C887.456 567.605 885.896 565.973 881.896 567.973C881.563 568.473 879.214 569.376 874.396 572.473C867.396 576.973 868.245 576.533 870.896 582.973C874.396 591.473 885.896 602.973 895.396 610.473C900.587 614.571 902.896 614.348 905.896 610.973C909.896 606.473 911.896 603.473 916.896 596.473C920.618 591.262 920.456 588.83 913.956 585.33Z" stroke="url(#paint20_linear_1_4)"/>
</g>
<path d="M896.456 583.605C896.456 583.605 891.456 583.605 891.456 590.105C891.456 596.605 896.456 596.605 896.456 596.605" stroke="black" stroke-width="4"/>
<g filter="url(#filter20_d_1_4)">
<path d="M960.456 779.605C966.984 779.605 973.72 780.768 978.787 782.918C983.935 785.103 986.956 788.111 986.956 791.605C986.956 793.385 986.189 795.273 984.735 797.142C983.283 799.007 981.187 800.798 978.653 802.36C973.578 805.486 966.883 807.605 960.456 807.605C954.038 807.605 947.858 805.491 943.299 802.385C938.698 799.25 935.956 795.264 935.956 791.605C935.956 788.04 938.581 785.053 943.161 782.904C947.709 780.769 953.929 779.605 960.456 779.605Z" fill="url(#paint21_linear_1_4)" stroke="url(#paint22_linear_1_4)" stroke-width="2"/>
<path d="M962.956 795.605V799.105H974.456V795.605" stroke="black" stroke-width="2" stroke-linejoin="round"/>
<path d="M955.74 790.469C955.378 789.829 954.823 789.509 954.076 789.509C953.33 789.509 952.775 789.829 952.412 790.469C952.05 791.109 951.868 792.207 951.868 793.765C951.868 795.322 952.05 796.421 952.412 797.061C952.775 797.701 953.33 798.021 954.076 798.021C954.823 798.021 955.378 797.701 955.74 797.061C956.103 796.421 956.284 795.322 956.284 793.765C956.284 792.207 956.103 791.109 955.74 790.469ZM957.436 798.341C956.7 799.29 955.58 799.765 954.076 799.765C952.572 799.765 951.447 799.29 950.7 798.341C949.964 797.391 949.596 795.866 949.596 793.765C949.596 791.663 949.964 790.138 950.7 789.189C951.447 788.239 952.572 787.765 954.076 787.765C955.58 787.765 956.7 788.239 957.436 789.189C958.183 790.138 958.556 791.663 958.556 793.765C958.556 795.866 958.183 797.391 957.436 798.341Z" fill="black"/>
</g>
<g filter="url(#filter21_d_1_4)">
<path d="M960.456 734.605C966.984 734.605 973.72 735.768 978.787 737.918C983.935 740.103 986.956 743.111 986.956 746.605C986.956 748.385 986.189 750.273 984.735 752.142C983.283 754.007 981.187 755.798 978.653 757.36C973.578 760.486 966.883 762.605 960.456 762.605C954.038 762.605 947.858 760.491 943.299 757.385C938.698 754.25 935.956 750.264 935.956 746.605C935.956 743.04 938.581 740.053 943.161 737.904C947.709 735.769 953.929 734.605 960.456 734.605Z" fill="url(#paint23_linear_1_4)" stroke="url(#paint24_linear_1_4)" stroke-width="2"/>
<path d="M953.756 748.309C952.412 748.746 951.74 749.407 951.74 750.293C951.74 750.847 951.954 751.295 952.38 751.637C952.807 751.967 953.372 752.133 954.076 752.133C954.78 752.133 955.335 751.967 955.74 751.637C956.156 751.295 956.364 750.847 956.364 750.293C956.364 749.823 956.194 749.434 955.852 749.125C955.511 748.815 954.903 748.543 954.028 748.309C953.932 748.277 953.842 748.277 953.756 748.309ZM954.076 743.397C953.458 743.397 952.972 743.535 952.62 743.813C952.279 744.09 952.108 744.458 952.108 744.917C952.108 745.695 952.738 746.266 953.996 746.629C954.114 746.65 954.199 746.65 954.252 746.629C955.468 746.245 956.076 745.674 956.076 744.917C956.076 744.458 955.9 744.09 955.548 743.813C955.196 743.535 954.706 743.397 954.076 743.397ZM957.372 752.853C956.583 753.461 955.484 753.765 954.076 753.765C952.668 753.765 951.57 753.461 950.78 752.853C949.991 752.245 949.596 751.429 949.596 750.405C949.596 749.818 949.788 749.279 950.172 748.789C950.556 748.287 951.127 747.877 951.884 747.557C951.906 747.557 951.916 747.546 951.916 747.525C951.916 747.514 951.911 747.509 951.9 747.509C951.282 747.199 950.802 746.799 950.46 746.309C950.13 745.818 949.964 745.279 949.964 744.693C949.964 743.818 950.327 743.114 951.052 742.581C951.778 742.037 952.786 741.765 954.076 741.765C955.367 741.765 956.375 742.037 957.1 742.581C957.826 743.114 958.188 743.818 958.188 744.693C958.188 745.802 957.527 746.661 956.204 747.269C956.194 747.269 956.188 747.279 956.188 747.301C956.188 747.311 956.194 747.317 956.204 747.317C957.772 747.914 958.556 748.943 958.556 750.405C958.556 751.429 958.162 752.245 957.372 752.853Z" fill="black"/>
<path d="M965.266 748.605C965.42 748.605 965.553 748.661 965.666 748.775C965.78 748.888 965.836 749.021 965.836 749.175V749.335C965.836 749.488 965.78 749.621 965.666 749.735C965.553 749.848 965.42 749.905 965.266 749.905H964.376C964.316 749.905 964.286 749.935 964.286 749.995V751.405C964.286 751.805 964.32 752.055 964.386 752.155C964.453 752.255 964.603 752.305 964.836 752.305C964.93 752.305 965.043 752.295 965.176 752.275C965.316 752.255 965.443 752.291 965.556 752.385C965.676 752.471 965.736 752.585 965.736 752.725V752.985C965.736 753.151 965.683 753.301 965.576 753.435C965.476 753.561 965.346 753.635 965.186 753.655C964.953 753.688 964.67 753.705 964.336 753.705C963.623 753.705 963.12 753.551 962.826 753.245C962.533 752.938 962.386 752.391 962.386 751.605V749.995C962.386 749.935 962.356 749.905 962.296 749.905H961.906C961.753 749.905 961.62 749.848 961.506 749.735C961.393 749.621 961.336 749.488 961.336 749.335V749.175C961.336 749.021 961.393 748.888 961.506 748.775C961.62 748.661 961.753 748.605 961.906 748.605H962.296C962.356 748.605 962.386 748.575 962.386 748.515V747.275C962.386 747.121 962.443 746.988 962.556 746.875C962.67 746.761 962.803 746.705 962.956 746.705H963.716C963.87 746.705 964.003 746.761 964.116 746.875C964.23 746.988 964.286 747.121 964.286 747.275V748.515C964.286 748.575 964.316 748.605 964.376 748.605H965.266ZM971.524 748.405C971.678 748.405 971.811 748.461 971.924 748.575C972.038 748.688 972.094 748.821 972.094 748.975V753.035C972.094 753.188 972.038 753.321 971.924 753.435C971.811 753.548 971.678 753.605 971.524 753.605H970.844C970.684 753.605 970.548 753.551 970.434 753.445C970.321 753.331 970.261 753.195 970.254 753.035V752.955C970.254 752.948 970.251 752.945 970.244 752.945C970.231 752.945 970.224 752.948 970.224 752.955C969.811 753.455 969.301 753.705 968.694 753.705C968.108 753.705 967.684 753.541 967.424 753.215C967.171 752.888 967.044 752.318 967.044 751.505V748.975C967.044 748.821 967.101 748.688 967.214 748.575C967.328 748.461 967.461 748.405 967.614 748.405H968.324C968.478 748.405 968.611 748.461 968.724 748.575C968.838 748.688 968.894 748.821 968.894 748.975V751.405C968.894 751.711 968.934 751.921 969.014 752.035C969.101 752.148 969.244 752.205 969.444 752.205C969.631 752.205 969.801 752.131 969.954 751.985C970.114 751.838 970.194 751.678 970.194 751.505V748.975C970.194 748.821 970.251 748.688 970.364 748.575C970.478 748.461 970.611 748.405 970.764 748.405H971.524ZM977.894 748.405C978.034 748.405 978.147 748.461 978.234 748.575C978.321 748.688 978.344 748.811 978.304 748.945L977.074 753.065C977.021 753.225 976.927 753.355 976.794 753.455C976.661 753.555 976.511 753.605 976.344 753.605H974.984C974.811 753.605 974.657 753.555 974.524 753.455C974.391 753.355 974.301 753.225 974.254 753.065L973.024 748.945C972.984 748.811 973.007 748.688 973.094 748.575C973.181 748.461 973.294 748.405 973.434 748.405H974.314C974.474 748.405 974.617 748.458 974.744 748.565C974.877 748.671 974.961 748.805 974.994 748.965L975.674 752.495C975.674 752.501 975.677 752.505 975.684 752.505C975.691 752.505 975.694 752.501 975.694 752.495L976.374 748.965C976.401 748.805 976.477 748.671 976.604 748.565C976.737 748.458 976.887 748.405 977.054 748.405H977.894Z" fill="black"/>
</g>
<g filter="url(#filter22_d_1_4)">
<path d="M960.456 690.605C966.984 690.605 973.72 691.768 978.787 693.918C983.935 696.103 986.956 699.111 986.956 702.605C986.956 704.385 986.189 706.273 984.735 708.142C983.283 710.007 981.187 711.798 978.653 713.36C973.578 716.486 966.883 718.605 960.456 718.605C954.038 718.605 947.858 716.491 943.299 713.385C938.698 710.25 935.956 706.264 935.956 702.605C935.956 699.04 938.581 696.053 943.161 693.904C947.709 691.769 953.929 690.605 960.456 690.605Z" fill="url(#paint25_linear_1_4)" stroke="url(#paint26_linear_1_4)" stroke-width="2"/>
<path d="M951.292 711.525C951.036 711.461 950.823 711.322 950.652 711.109C950.492 710.885 950.412 710.634 950.412 710.357V710.197C950.412 709.983 950.498 709.813 950.668 709.685C950.85 709.557 951.042 709.525 951.244 709.589C952.044 709.834 952.732 709.957 953.308 709.957C955.004 709.957 955.852 709.189 955.852 707.653C955.852 706.383 955.239 705.749 954.012 705.749C953.692 705.749 953.388 705.807 953.1 705.925C952.322 706.245 951.772 706.405 951.452 706.405H951.34C951.095 706.405 950.887 706.314 950.716 706.133C950.546 705.951 950.466 705.738 950.476 705.493L950.716 700.837C950.738 700.581 950.834 700.367 951.004 700.197C951.186 700.015 951.404 699.925 951.66 699.925H956.652C956.898 699.925 957.106 700.015 957.276 700.197C957.458 700.378 957.548 700.591 957.548 700.837C957.548 701.082 957.458 701.295 957.276 701.477C957.106 701.647 956.898 701.733 956.652 701.733H952.924C952.828 701.733 952.78 701.781 952.78 701.877L952.652 704.421C952.652 704.431 952.658 704.437 952.668 704.437H952.684L952.7 704.421C953.234 704.165 953.81 704.037 954.428 704.037C955.58 704.037 956.471 704.351 957.1 704.981C957.74 705.61 958.06 706.501 958.06 707.653C958.06 710.394 956.498 711.765 953.372 711.765C952.658 711.765 951.964 711.685 951.292 711.525Z" fill="black"/>
<path d="M964.766 704.405C964.92 704.405 965.053 704.461 965.166 704.575C965.28 704.688 965.336 704.821 965.336 704.975V709.505C965.336 710.071 965.253 710.508 965.086 710.815C964.92 711.128 964.616 711.361 964.176 711.515C963.743 711.675 963.12 711.768 962.306 711.795C962.153 711.801 962.02 711.748 961.906 711.635C961.793 711.521 961.736 711.388 961.736 711.235V710.925C961.736 710.771 961.793 710.638 961.906 710.525C962.013 710.418 962.143 710.358 962.296 710.345C962.73 710.325 963.01 710.258 963.136 710.145C963.27 710.031 963.336 709.818 963.336 709.505V704.975C963.336 704.821 963.393 704.688 963.506 704.575C963.62 704.461 963.753 704.405 963.906 704.405H964.766ZM964.766 702.105C964.92 702.105 965.053 702.161 965.166 702.275C965.28 702.388 965.336 702.521 965.336 702.675V702.935C965.336 703.088 965.28 703.221 965.166 703.335C965.053 703.448 964.92 703.505 964.766 703.505H963.906C963.753 703.505 963.62 703.448 963.506 703.335C963.393 703.221 963.336 703.088 963.336 702.935V702.675C963.336 702.521 963.393 702.388 963.506 702.275C963.62 702.161 963.753 702.105 963.906 702.105H964.766ZM970.295 706.975L971.905 709.145C971.972 709.238 971.979 709.338 971.925 709.445C971.872 709.551 971.789 709.605 971.675 709.605H970.665C970.279 709.605 969.979 709.451 969.765 709.145L968.775 707.715C968.775 707.708 968.769 707.705 968.755 707.705C968.749 707.705 968.745 707.708 968.745 707.715V709.035C968.745 709.188 968.689 709.321 968.575 709.435C968.462 709.548 968.329 709.605 968.175 709.605H967.415C967.262 709.605 967.129 709.548 967.015 709.435C966.902 709.321 966.845 709.188 966.845 709.035V702.675C966.845 702.521 966.902 702.388 967.015 702.275C967.129 702.161 967.262 702.105 967.415 702.105H968.175C968.329 702.105 968.462 702.161 968.575 702.275C968.689 702.388 968.745 702.521 968.745 702.675V706.195C968.745 706.201 968.749 706.205 968.755 706.205L968.775 706.195L969.755 704.865C969.975 704.558 970.279 704.405 970.665 704.405H971.675C971.789 704.405 971.872 704.455 971.925 704.555C971.979 704.655 971.969 704.751 971.895 704.845L970.295 706.835C970.262 706.881 970.262 706.928 970.295 706.975ZM974.558 702.105C974.712 702.105 974.845 702.161 974.958 702.275C975.072 702.388 975.128 702.521 975.128 702.675V709.035C975.128 709.188 975.072 709.321 974.958 709.435C974.845 709.548 974.712 709.605 974.558 709.605H973.698C973.545 709.605 973.412 709.548 973.298 709.435C973.185 709.321 973.128 709.188 973.128 709.035V702.675C973.128 702.521 973.185 702.388 973.298 702.275C973.412 702.161 973.545 702.105 973.698 702.105H974.558Z" fill="black"/>
</g>
<g filter="url(#filter23_d_1_4)">
<path d="M960.456 646.605C966.984 646.605 973.72 647.768 978.787 649.918C983.935 652.103 986.956 655.111 986.956 658.605C986.956 660.385 986.189 662.273 984.735 664.142C983.283 666.007 981.187 667.798 978.653 669.36C973.578 672.486 966.883 674.605 960.456 674.605C954.038 674.605 947.858 672.491 943.299 669.385C938.698 666.25 935.956 662.264 935.956 658.605C935.956 655.04 938.581 652.053 943.161 649.904C947.709 647.769 953.929 646.605 960.456 646.605Z" fill="url(#paint27_linear_1_4)" stroke="url(#paint28_linear_1_4)" stroke-width="2"/>
<path d="M955.916 656.173C955.916 657.175 955.596 658.141 954.956 659.069C954.327 659.986 953.1 661.207 951.276 662.733C951.255 662.754 951.244 662.77 951.244 662.781C951.244 662.791 951.25 662.797 951.26 662.797H955.036C955.282 662.797 955.495 662.887 955.676 663.069C955.858 663.239 955.948 663.447 955.948 663.693C955.948 663.938 955.858 664.151 955.676 664.333C955.495 664.514 955.282 664.605 955.036 664.605H949.164C948.919 664.605 948.706 664.514 948.524 664.333C948.354 664.151 948.268 663.938 948.268 663.693C948.268 663.085 948.498 662.599 948.956 662.237C950.802 660.765 952.039 659.618 952.668 658.797C953.298 657.975 953.612 657.175 953.612 656.397C953.612 655.213 952.978 654.621 951.708 654.621C951.058 654.621 950.268 654.802 949.34 655.165C949.138 655.25 948.946 655.234 948.764 655.117C948.594 654.999 948.508 654.839 948.508 654.637V654.365C948.508 654.087 948.583 653.837 948.732 653.613C948.892 653.378 949.1 653.223 949.356 653.149C950.263 652.893 951.154 652.765 952.028 652.765C953.276 652.765 954.236 653.063 954.908 653.661C955.58 654.258 955.916 655.095 955.916 656.173Z" fill="black"/>
<path d="M961.436 662.505V662.445C961.436 662.385 961.406 662.355 961.346 662.355H961.036C960.37 662.355 960.036 662.555 960.036 662.955C960.036 663.255 960.203 663.405 960.536 663.405C960.796 663.405 961.01 663.325 961.176 663.165C961.35 662.998 961.436 662.778 961.436 662.505ZM960.836 659.305C961.716 659.305 962.353 659.465 962.746 659.785C963.14 660.105 963.336 660.611 963.336 661.305V664.035C963.336 664.188 963.28 664.321 963.166 664.435C963.053 664.548 962.92 664.605 962.766 664.605H962.136C961.976 664.605 961.84 664.551 961.726 664.445C961.613 664.331 961.553 664.195 961.546 664.035V663.955C961.546 663.948 961.543 663.945 961.536 663.945C961.53 663.945 961.523 663.948 961.516 663.955C961.09 664.455 960.563 664.705 959.936 664.705C959.47 664.705 959.086 664.558 958.786 664.265C958.486 663.965 958.336 663.578 958.336 663.105C958.336 661.905 959.236 661.305 961.036 661.305H961.346C961.406 661.305 961.436 661.275 961.436 661.215V661.205C961.436 660.805 961.203 660.605 960.736 660.605C960.336 660.605 959.82 660.665 959.186 660.785C959.046 660.811 958.92 660.781 958.806 660.695C958.693 660.601 958.636 660.481 958.636 660.335V660.175C958.636 660.008 958.686 659.858 958.786 659.725C958.893 659.591 959.026 659.511 959.186 659.485C959.846 659.365 960.396 659.305 960.836 659.305ZM967.294 663.305C967.554 663.305 967.76 663.198 967.914 662.985C968.067 662.765 968.144 662.438 968.144 662.005C968.144 661.138 967.86 660.705 967.294 660.705C967.067 660.705 966.867 660.781 966.694 660.935C966.527 661.088 966.444 661.261 966.444 661.455V662.555C966.444 662.748 966.527 662.921 966.694 663.075C966.867 663.228 967.067 663.305 967.294 663.305ZM967.994 659.305C968.607 659.305 969.094 659.538 969.454 660.005C969.814 660.465 969.994 661.131 969.994 662.005C969.994 662.858 969.804 663.521 969.424 663.995C969.05 664.468 968.574 664.705 967.994 664.705C967.354 664.705 966.827 664.455 966.414 663.955C966.407 663.948 966.4 663.945 966.394 663.945C966.387 663.945 966.384 663.948 966.384 663.955V664.035C966.377 664.195 966.317 664.331 966.204 664.445C966.09 664.551 965.954 664.605 965.794 664.605H965.164C965.01 664.605 964.877 664.548 964.764 664.435C964.65 664.321 964.594 664.188 964.594 664.035V657.675C964.594 657.521 964.65 657.388 964.764 657.275C964.877 657.161 965.01 657.105 965.164 657.105H965.924C966.077 657.105 966.21 657.161 966.324 657.275C966.437 657.388 966.494 657.521 966.494 657.675V659.895C966.494 659.901 966.497 659.905 966.504 659.905C966.51 659.905 966.517 659.901 966.524 659.895C966.97 659.501 967.46 659.305 967.994 659.305ZM974.637 663.235C974.784 663.208 974.914 663.238 975.027 663.325C975.141 663.411 975.197 663.528 975.197 663.675V663.935C975.197 664.101 975.144 664.248 975.037 664.375C974.937 664.501 974.804 664.578 974.637 664.605C974.171 664.671 973.774 664.705 973.447 664.705C972.561 664.705 971.881 664.478 971.407 664.025C970.934 663.571 970.697 662.898 970.697 662.005C970.697 661.131 970.924 660.465 971.377 660.005C971.837 659.538 972.494 659.305 973.347 659.305C973.674 659.305 974.071 659.338 974.537 659.405C974.704 659.431 974.837 659.508 974.937 659.635C975.044 659.761 975.097 659.908 975.097 660.075V660.335C975.097 660.481 975.041 660.598 974.927 660.685C974.814 660.771 974.684 660.801 974.537 660.775C974.264 660.728 973.984 660.705 973.697 660.705C973.357 660.705 973.104 660.808 972.937 661.015C972.777 661.221 972.697 661.551 972.697 662.005C972.697 662.465 972.784 662.798 972.957 663.005C973.137 663.205 973.417 663.305 973.797 663.305C974.084 663.305 974.364 663.281 974.637 663.235Z" fill="black"/>
</g>
<g filter="url(#filter24_d_1_4)">
<path d="M1037.07 765.818C1042.43 765.187 1046.68 765.99 1049.54 767.824C1052.36 769.63 1053.96 772.501 1053.96 776.324C1053.96 780.259 1052.77 784.384 1049.59 787.951C1046.4 791.519 1041.13 794.611 1032.81 796.333C1025.87 797.073 1019.27 797.006 1014.45 795.775C1012.04 795.158 1010.15 794.269 1008.88 793.117C1007.64 791.993 1006.96 790.596 1006.96 788.824C1006.96 787.016 1007.73 784.793 1009.25 782.397C1010.77 780.015 1012.98 777.537 1015.72 775.234C1021.22 770.624 1028.8 766.791 1037.07 765.818Z" fill="url(#paint29_linear_1_4)" stroke="url(#paint30_linear_1_4)" stroke-width="2"/>
<line x1="1040.87" y1="772.019" x2="1035.87" y2="783.019" stroke="black" stroke-width="2"/>
<line x1="1044.87" y1="772.019" x2="1039.87" y2="783.019" stroke="black" stroke-width="2"/>
<line x1="1047.04" y1="775.605" x2="1034.96" y2="775.605" stroke="black" stroke-width="2"/>
<line x1="1045.04" y1="779.605" x2="1032.96" y2="779.605" stroke="black" stroke-width="2"/>
<path d="M1019.46 785.105H1019.96V784.605H1019.46V785.105ZM1017.96 785.105L1017.58 784.773L1016.84 785.605H1017.96V785.105ZM1021.96 780.605L1022.33 780.273C1022.24 780.166 1022.1 780.105 1021.96 780.105C1021.81 780.105 1021.68 780.166 1021.58 780.273L1021.96 780.605ZM1025.96 785.105V785.605H1027.07L1026.33 784.773L1025.96 785.105ZM1024.46 785.105V784.605H1023.96V785.105H1024.46ZM1024.46 788.605V789.105C1024.73 789.105 1024.96 788.881 1024.96 788.605H1024.46ZM1019.46 788.605H1018.96C1018.96 788.881 1019.18 789.105 1019.46 789.105V788.605ZM1019.46 784.605H1017.96V785.605H1019.46V784.605ZM1018.33 785.437L1022.33 780.937L1021.58 780.273L1017.58 784.773L1018.33 785.437ZM1021.58 780.937L1025.58 785.437L1026.33 784.773L1022.33 780.273L1021.58 780.937ZM1025.96 784.605H1024.46V785.605H1025.96V784.605ZM1023.96 785.105V788.605H1024.96V785.105H1023.96ZM1024.46 788.105H1019.46V789.105H1024.46V788.105ZM1019.96 788.605V785.105H1018.96V788.605H1019.96Z" fill="black"/>
</g>
<g filter="url(#filter25_d_1_4)">
<path d="M1039.07 721.818C1044.43 721.187 1048.68 721.99 1051.54 723.824C1054.36 725.63 1055.96 728.501 1055.96 732.324C1055.96 736.259 1054.77 740.384 1051.59 743.951C1048.4 747.519 1043.13 750.611 1034.81 752.333C1027.87 753.073 1021.27 753.006 1016.45 751.775C1014.04 751.158 1012.15 750.269 1010.88 749.117C1009.64 747.993 1008.96 746.596 1008.96 744.824C1008.96 743.016 1009.73 740.793 1011.25 738.397C1012.77 736.015 1014.98 733.537 1017.72 731.234C1023.22 726.624 1030.8 722.791 1039.07 721.818Z" fill="url(#paint31_linear_1_4)" stroke="url(#paint32_linear_1_4)" stroke-width="2"/>
<path d="M1046.03 728.477C1045.35 728.477 1044.81 728.674 1044.41 729.069C1044.03 729.463 1043.84 730.018 1043.84 730.733C1043.84 731.522 1044.03 732.13 1044.41 732.557C1044.81 732.973 1045.35 733.181 1046.03 733.181C1046.69 733.181 1047.21 732.962 1047.6 732.525C1047.99 732.087 1048.19 731.49 1048.19 730.733C1048.19 730.05 1047.99 729.506 1047.58 729.101C1047.18 728.685 1046.66 728.477 1046.03 728.477ZM1045.55 734.765C1044.32 734.765 1043.36 734.418 1042.67 733.725C1041.99 733.021 1041.64 732.034 1041.64 730.765C1041.64 729.538 1042.04 728.567 1042.83 727.853C1043.62 727.127 1044.68 726.765 1046.03 726.765C1047.44 726.765 1048.51 727.191 1049.26 728.045C1050.02 728.887 1050.4 730.167 1050.4 731.885C1050.4 734.253 1049.96 735.991 1049.1 737.101C1048.24 738.21 1046.97 738.765 1045.31 738.765C1044.78 738.765 1044.23 738.717 1043.66 738.621C1043.4 738.578 1043.19 738.455 1043.02 738.253C1042.85 738.039 1042.76 737.799 1042.76 737.533C1042.76 737.309 1042.85 737.133 1043.02 737.005C1043.2 736.866 1043.4 736.823 1043.63 736.877C1044.18 736.994 1044.72 737.053 1045.24 737.053C1046.11 737.053 1046.79 736.791 1047.29 736.269C1047.8 735.735 1048.08 734.967 1048.11 733.965V733.933L1048.08 733.949C1047.47 734.493 1046.63 734.765 1045.55 734.765Z" fill="black"/>
<path d="M1025.44 739.405C1025.58 739.405 1025.7 739.461 1025.79 739.575C1025.88 739.681 1025.91 739.808 1025.89 739.955L1025.03 744.055C1024.99 744.215 1024.91 744.348 1024.78 744.455C1024.65 744.555 1024.5 744.605 1024.34 744.605H1023.28C1023.11 744.605 1022.96 744.551 1022.84 744.445C1022.72 744.338 1022.64 744.205 1022.62 744.045L1022.12 741.015C1022.12 741.008 1022.11 741.005 1022.11 741.005C1022.1 741.005 1022.1 741.008 1022.1 741.015L1021.6 744.045C1021.57 744.205 1021.49 744.338 1021.37 744.445C1021.25 744.551 1021.1 744.605 1020.94 744.605H1019.88C1019.71 744.605 1019.56 744.555 1019.43 744.455C1019.3 744.348 1019.22 744.215 1019.19 744.055L1018.33 739.955C1018.3 739.808 1018.33 739.681 1018.42 739.575C1018.51 739.461 1018.63 739.405 1018.78 739.405H1019.51C1019.67 739.405 1019.81 739.458 1019.93 739.565C1020.05 739.671 1020.13 739.805 1020.15 739.965L1020.52 743.095C1020.52 743.101 1020.52 743.105 1020.53 743.105C1020.53 743.105 1020.54 743.101 1020.54 743.095L1021 739.965C1021.02 739.805 1021.1 739.671 1021.22 739.565C1021.34 739.458 1021.48 739.405 1021.65 739.405H1022.61C1022.77 739.405 1022.92 739.458 1023.04 739.565C1023.16 739.671 1023.23 739.805 1023.26 739.965L1023.72 743.095C1023.72 743.101 1023.72 743.105 1023.73 743.105C1023.73 743.105 1023.74 743.101 1023.74 743.095L1024.11 739.965C1024.13 739.805 1024.2 739.671 1024.32 739.565C1024.44 739.458 1024.59 739.405 1024.75 739.405H1025.44ZM1030.33 742.025L1031.47 744.105C1031.53 744.218 1031.53 744.331 1031.46 744.445C1031.39 744.551 1031.3 744.605 1031.17 744.605H1030.29C1030.12 744.605 1029.97 744.558 1029.82 744.465C1029.68 744.365 1029.58 744.235 1029.51 744.075L1029.03 742.885C1029.03 742.878 1029.03 742.875 1029.02 742.875C1029.01 742.875 1029.01 742.878 1029.01 742.885L1028.53 744.075C1028.46 744.235 1028.36 744.365 1028.22 744.465C1028.08 744.558 1027.92 744.605 1027.75 744.605H1026.91C1026.78 744.605 1026.69 744.551 1026.62 744.445C1026.55 744.331 1026.55 744.218 1026.61 744.105L1027.75 742.025C1027.78 741.978 1027.78 741.931 1027.75 741.885L1026.66 739.905C1026.6 739.791 1026.6 739.681 1026.67 739.575C1026.74 739.461 1026.83 739.405 1026.96 739.405H1027.84C1028.01 739.405 1028.17 739.455 1028.31 739.555C1028.45 739.648 1028.55 739.775 1028.61 739.935L1029.05 741.055C1029.05 741.061 1029.05 741.065 1029.06 741.065C1029.07 741.065 1029.07 741.061 1029.07 741.055L1029.51 739.935C1029.57 739.775 1029.67 739.648 1029.81 739.555C1029.95 739.455 1030.11 739.405 1030.28 739.405H1031.12C1031.25 739.405 1031.34 739.461 1031.41 739.575C1031.48 739.681 1031.48 739.791 1031.42 739.905L1030.33 741.885C1030.3 741.931 1030.3 741.978 1030.33 742.025ZM1036.97 739.405C1037.11 739.405 1037.21 739.461 1037.29 739.575C1037.37 739.681 1037.39 739.801 1037.35 739.935L1035.08 746.275C1035.02 746.435 1034.92 746.561 1034.78 746.655C1034.64 746.755 1034.48 746.805 1034.32 746.805H1033.46C1033.32 746.805 1033.21 746.748 1033.13 746.635C1033.05 746.528 1033.04 746.411 1033.1 746.285L1033.76 744.685C1033.76 744.658 1033.77 744.631 1033.77 744.605C1033.77 744.578 1033.76 744.551 1033.76 744.525L1032.04 739.935C1031.98 739.808 1032 739.688 1032.08 739.575C1032.16 739.461 1032.27 739.405 1032.41 739.405H1033.37C1033.53 739.405 1033.67 739.458 1033.8 739.565C1033.93 739.671 1034.01 739.805 1034.05 739.965L1034.63 742.895C1034.63 742.901 1034.63 742.905 1034.64 742.905C1034.64 742.905 1034.65 742.901 1034.65 742.895L1035.4 739.955C1035.44 739.795 1035.52 739.665 1035.66 739.565C1035.79 739.458 1035.94 739.405 1036.11 739.405H1036.97ZM1042.19 739.405C1042.34 739.405 1042.47 739.461 1042.59 739.575C1042.7 739.688 1042.76 739.821 1042.76 739.975V740.135C1042.76 740.515 1042.63 740.848 1042.39 741.135L1040.57 743.275C1040.56 743.281 1040.56 743.288 1040.56 743.295C1040.56 743.301 1040.56 743.305 1040.57 743.305H1042.19C1042.34 743.305 1042.47 743.361 1042.59 743.475C1042.7 743.588 1042.76 743.721 1042.76 743.875V744.035C1042.76 744.188 1042.7 744.321 1042.59 744.435C1042.47 744.548 1042.34 744.605 1042.19 744.605H1038.73C1038.57 744.605 1038.44 744.548 1038.33 744.435C1038.21 744.321 1038.16 744.188 1038.16 744.035V743.875C1038.16 743.495 1038.28 743.161 1038.53 742.875L1040.35 740.735C1040.35 740.728 1040.36 740.721 1040.36 740.715C1040.36 740.708 1040.35 740.705 1040.35 740.705H1038.73C1038.57 740.705 1038.44 740.648 1038.33 740.535C1038.21 740.421 1038.16 740.288 1038.16 740.135V739.975C1038.16 739.821 1038.21 739.688 1038.33 739.575C1038.44 739.461 1038.57 739.405 1038.73 739.405H1042.19Z" fill="black"/>
</g>
<g filter="url(#filter26_d_1_4)">
<path d="M1041.07 677.818C1046.43 677.187 1050.68 677.99 1053.54 679.824C1056.36 681.63 1057.96 684.501 1057.96 688.324C1057.96 692.259 1056.77 696.384 1053.59 699.951C1050.4 703.519 1045.13 706.611 1036.81 708.333C1029.87 709.073 1023.27 709.006 1018.45 707.775C1016.04 707.158 1014.15 706.269 1012.88 705.117C1011.64 703.993 1010.96 702.596 1010.96 700.824C1010.96 699.016 1011.73 696.793 1013.25 694.397C1014.77 692.015 1016.98 689.537 1019.72 687.234C1025.22 682.624 1032.8 678.791 1041.07 677.818Z" fill="url(#paint33_linear_1_4)" stroke="url(#paint34_linear_1_4)" stroke-width="2"/>
<path d="M1048.12 688.349C1047.47 688.349 1046.95 688.557 1046.56 688.973C1046.16 689.389 1045.96 689.943 1045.96 690.637C1045.96 691.383 1046.16 691.975 1046.56 692.413C1046.96 692.839 1047.48 693.053 1048.12 693.053C1048.81 693.053 1049.34 692.85 1049.72 692.445C1050.12 692.029 1050.32 691.426 1050.32 690.637C1050.32 689.922 1050.12 689.362 1049.72 688.957C1049.33 688.551 1048.8 688.349 1048.12 688.349ZM1048.12 694.765C1045.21 694.765 1043.76 693.005 1043.76 689.485C1043.76 687.245 1044.19 685.565 1045.07 684.445C1045.95 683.325 1047.21 682.765 1048.84 682.765C1049.31 682.765 1049.82 682.807 1050.35 682.893C1050.6 682.935 1050.81 683.063 1050.97 683.277C1051.14 683.49 1051.23 683.73 1051.23 683.997C1051.23 684.221 1051.14 684.397 1050.96 684.525C1050.79 684.653 1050.59 684.69 1050.36 684.637C1049.93 684.53 1049.44 684.477 1048.91 684.477C1048.12 684.477 1047.47 684.743 1046.96 685.277C1046.46 685.81 1046.15 686.573 1046.04 687.565V687.597L1046.08 687.581C1046.68 687.037 1047.53 686.765 1048.6 686.765C1049.83 686.765 1050.79 687.106 1051.47 687.789C1052.16 688.461 1052.51 689.399 1052.51 690.605C1052.51 691.906 1052.11 692.925 1051.32 693.661C1050.54 694.397 1049.47 694.765 1048.12 694.765Z" fill="black"/>
<path d="M1026.54 696.305C1027.11 696.305 1027.53 696.461 1027.79 696.775C1028.05 697.081 1028.19 697.591 1028.19 698.305V701.035C1028.19 701.188 1028.13 701.321 1028.02 701.435C1027.9 701.548 1027.77 701.605 1027.62 701.605H1026.91C1026.75 701.605 1026.62 701.548 1026.51 701.435C1026.4 701.321 1026.35 701.188 1026.35 701.035V698.305C1026.35 698.078 1026.31 697.925 1026.25 697.845C1026.18 697.765 1026.06 697.725 1025.89 697.725C1025.75 697.725 1025.63 697.768 1025.51 697.855C1025.39 697.941 1025.34 698.025 1025.34 698.105V701.035C1025.34 701.188 1025.28 701.321 1025.17 701.435C1025.05 701.548 1024.92 701.605 1024.77 701.605H1024.06C1023.9 701.605 1023.77 701.548 1023.66 701.435C1023.55 701.321 1023.5 701.188 1023.5 701.035V698.305C1023.5 698.078 1023.46 697.925 1023.4 697.845C1023.33 697.765 1023.21 697.725 1023.04 697.725C1022.9 697.725 1022.78 697.768 1022.66 697.855C1022.54 697.941 1022.49 698.025 1022.49 698.105V701.035C1022.49 701.188 1022.43 701.321 1022.32 701.435C1022.2 701.548 1022.07 701.605 1021.92 701.605H1021.16C1021 701.605 1020.87 701.548 1020.76 701.435C1020.64 701.321 1020.59 701.188 1020.59 701.035V696.975C1020.59 696.821 1020.64 696.688 1020.76 696.575C1020.87 696.461 1021 696.405 1021.16 696.405H1021.77C1021.93 696.405 1022.06 696.461 1022.18 696.575C1022.29 696.681 1022.35 696.815 1022.37 696.975L1022.38 697.095C1022.38 697.101 1022.38 697.105 1022.39 697.105C1022.4 697.105 1022.41 697.101 1022.41 697.095C1022.59 696.848 1022.8 696.655 1023.05 696.515C1023.3 696.375 1023.55 696.305 1023.79 696.305C1024.09 696.305 1024.34 696.358 1024.52 696.465C1024.7 696.571 1024.88 696.765 1025.05 697.045C1025.05 697.051 1025.05 697.055 1025.06 697.055C1025.07 697.055 1025.08 697.051 1025.09 697.045C1025.58 696.551 1026.06 696.305 1026.54 696.305ZM1031.27 697.055C1031.68 696.555 1032.19 696.305 1032.8 696.305C1033.4 696.305 1033.84 696.478 1034.1 696.825C1034.36 697.171 1034.5 697.765 1034.5 698.605V701.035C1034.5 701.188 1034.44 701.321 1034.33 701.435C1034.21 701.548 1034.08 701.605 1033.93 701.605H1033.22C1033.06 701.605 1032.93 701.548 1032.82 701.435C1032.7 701.321 1032.65 701.188 1032.65 701.035V698.605C1032.65 698.298 1032.6 698.088 1032.52 697.975C1032.43 697.861 1032.27 697.805 1032.05 697.805C1031.86 697.805 1031.69 697.878 1031.53 698.025C1031.37 698.171 1031.3 698.331 1031.3 698.505V701.035C1031.3 701.188 1031.24 701.321 1031.13 701.435C1031.01 701.548 1030.88 701.605 1030.73 701.605H1029.97C1029.81 701.605 1029.68 701.548 1029.57 701.435C1029.45 701.321 1029.4 701.188 1029.4 701.035V696.975C1029.4 696.821 1029.45 696.688 1029.57 696.575C1029.68 696.461 1029.81 696.405 1029.97 696.405H1030.65C1030.81 696.405 1030.94 696.461 1031.06 696.575C1031.17 696.681 1031.23 696.815 1031.24 696.975V697.055C1031.24 697.061 1031.24 697.065 1031.25 697.065C1031.26 697.065 1031.27 697.061 1031.27 697.055ZM1037.44 700.095C1037.57 700.301 1037.77 700.405 1038.05 700.405C1038.33 700.405 1038.54 700.301 1038.66 700.095C1038.79 699.881 1038.85 699.518 1038.85 699.005C1038.85 698.491 1038.79 698.131 1038.66 697.925C1038.54 697.711 1038.33 697.605 1038.05 697.605C1037.77 697.605 1037.57 697.711 1037.44 697.925C1037.32 698.131 1037.25 698.491 1037.25 699.005C1037.25 699.518 1037.32 699.881 1037.44 700.095ZM1036.06 697.025C1036.54 696.545 1037.2 696.305 1038.05 696.305C1038.91 696.305 1039.57 696.545 1040.04 697.025C1040.52 697.498 1040.75 698.158 1040.75 699.005C1040.75 699.851 1040.52 700.515 1040.04 700.995C1039.57 701.468 1038.91 701.705 1038.05 701.705C1037.2 701.705 1036.54 701.468 1036.06 700.995C1035.59 700.515 1035.35 699.851 1035.35 699.005C1035.35 698.158 1035.59 697.498 1036.06 697.025Z" fill="black"/>
</g>
<g filter="url(#filter27_d_1_4)">
<path d="M1045.07 634.598C1050.43 633.968 1054.68 634.77 1057.54 636.605C1060.36 638.411 1061.96 641.282 1061.96 645.105C1061.96 649.039 1060.77 653.165 1057.59 656.732C1054.4 660.299 1049.13 663.392 1040.81 665.114C1033.87 665.854 1027.27 665.787 1022.45 664.555C1020.04 663.939 1018.15 663.05 1016.88 661.898C1015.64 660.774 1014.96 659.377 1014.96 657.605C1014.96 655.797 1015.73 653.574 1017.25 651.177C1018.77 648.796 1020.98 646.317 1023.72 644.014C1029.22 639.404 1036.8 635.572 1045.07 634.598Z" fill="url(#paint35_linear_1_4)" stroke="url(#paint36_linear_1_4)" stroke-width="2"/>
<path d="M1047.15 640.733C1046.9 640.733 1046.69 640.647 1046.51 640.477C1046.33 640.295 1046.24 640.082 1046.24 639.837C1046.24 639.591 1046.33 639.378 1046.51 639.197C1046.69 639.015 1046.9 638.925 1047.15 638.925H1052.83C1053.07 638.925 1053.28 639.015 1053.45 639.197C1053.63 639.378 1053.72 639.591 1053.72 639.837C1053.72 640.445 1053.5 640.946 1053.05 641.341L1050.46 643.693C1050.45 643.703 1050.44 643.714 1050.44 643.725C1050.44 643.735 1050.45 643.741 1050.46 643.741H1050.72C1051.7 643.741 1052.47 644.023 1053.04 644.589C1053.6 645.143 1053.88 645.922 1053.88 646.925C1053.88 648.151 1053.51 649.101 1052.76 649.773C1052.02 650.434 1050.95 650.765 1049.56 650.765C1048.74 650.765 1047.95 650.669 1047.18 650.477C1046.92 650.413 1046.72 650.269 1046.56 650.045C1046.4 649.821 1046.32 649.57 1046.32 649.293V649.117C1046.32 648.903 1046.4 648.738 1046.57 648.621C1046.75 648.493 1046.95 648.461 1047.16 648.525C1048.03 648.813 1048.8 648.957 1049.47 648.957C1050.17 648.957 1050.72 648.786 1051.1 648.445C1051.48 648.103 1051.68 647.607 1051.68 646.957C1051.68 646.359 1051.46 645.933 1051.02 645.677C1050.59 645.41 1049.84 645.277 1048.75 645.277H1048.57C1048.36 645.277 1048.17 645.197 1048.01 645.037C1047.86 644.877 1047.79 644.69 1047.79 644.477C1047.79 643.943 1047.98 643.501 1048.36 643.149L1050.97 640.781C1050.98 640.77 1050.99 640.759 1050.99 640.749C1050.99 640.738 1050.98 640.733 1050.97 640.733H1047.15Z" fill="black"/>
<path d="M1026.84 655.555V654.455C1026.84 654.261 1026.75 654.088 1026.58 653.935C1026.41 653.781 1026.21 653.705 1025.99 653.705C1025.42 653.705 1025.14 654.138 1025.14 655.005C1025.14 655.438 1025.21 655.765 1025.37 655.985C1025.52 656.198 1025.73 656.305 1025.99 656.305C1026.21 656.305 1026.41 656.228 1026.58 656.075C1026.75 655.921 1026.84 655.748 1026.84 655.555ZM1028.12 650.105C1028.27 650.105 1028.4 650.161 1028.52 650.275C1028.63 650.388 1028.69 650.521 1028.69 650.675V657.035C1028.69 657.188 1028.63 657.321 1028.52 657.435C1028.4 657.548 1028.27 657.605 1028.12 657.605H1027.49C1027.33 657.605 1027.19 657.551 1027.08 657.445C1026.96 657.331 1026.9 657.195 1026.9 657.035V656.955C1026.9 656.948 1026.89 656.945 1026.89 656.945C1026.88 656.945 1026.87 656.948 1026.87 656.955C1026.46 657.455 1025.93 657.705 1025.29 657.705C1024.71 657.705 1024.23 657.468 1023.85 656.995C1023.47 656.521 1023.29 655.858 1023.29 655.005C1023.29 654.131 1023.47 653.465 1023.83 653.005C1024.19 652.538 1024.67 652.305 1025.29 652.305C1025.82 652.305 1026.31 652.501 1026.76 652.895C1026.76 652.901 1026.77 652.905 1026.78 652.905C1026.78 652.905 1026.79 652.901 1026.79 652.895V650.675C1026.79 650.521 1026.84 650.388 1026.96 650.275C1027.07 650.161 1027.2 650.105 1027.36 650.105H1028.12ZM1033 654.505C1033.06 654.505 1033.09 654.475 1033.09 654.415C1033.09 654.108 1033.02 653.888 1032.89 653.755C1032.77 653.621 1032.59 653.555 1032.34 653.555C1032.08 653.555 1031.89 653.621 1031.75 653.755C1031.63 653.881 1031.55 654.105 1031.51 654.425C1031.51 654.478 1031.54 654.505 1031.59 654.505H1033ZM1032.29 652.305C1033.99 652.305 1034.84 653.198 1034.84 654.985C1034.84 655.145 1034.78 655.281 1034.66 655.395C1034.54 655.501 1034.4 655.555 1034.23 655.555H1031.61C1031.55 655.555 1031.53 655.585 1031.54 655.645C1031.6 655.925 1031.73 656.121 1031.93 656.235C1032.14 656.348 1032.46 656.405 1032.89 656.405C1033.17 656.405 1033.5 656.365 1033.89 656.285C1034.03 656.251 1034.16 656.281 1034.27 656.375C1034.39 656.461 1034.44 656.578 1034.44 656.725V656.885C1034.44 657.051 1034.39 657.205 1034.28 657.345C1034.18 657.478 1034.05 657.558 1033.89 657.585C1033.49 657.665 1033.05 657.705 1032.59 657.705C1031.65 657.705 1030.92 657.475 1030.4 657.015C1029.9 656.548 1029.64 655.878 1029.64 655.005C1029.64 654.138 1029.87 653.471 1030.32 653.005C1030.78 652.538 1031.43 652.305 1032.29 652.305ZM1039.56 650.255C1039.72 650.275 1039.85 650.351 1039.95 650.485C1040.05 650.611 1040.11 650.758 1040.11 650.925V651.135C1040.11 651.275 1040.05 651.388 1039.94 651.475C1039.83 651.561 1039.71 651.595 1039.57 651.575C1039.45 651.561 1039.36 651.555 1039.31 651.555C1038.99 651.555 1038.79 651.608 1038.7 651.715C1038.6 651.815 1038.56 652.045 1038.56 652.405V652.515C1038.56 652.575 1038.59 652.605 1038.65 652.605H1039.44C1039.59 652.605 1039.72 652.661 1039.84 652.775C1039.95 652.888 1040.01 653.021 1040.01 653.175V653.335C1040.01 653.488 1039.95 653.621 1039.84 653.735C1039.72 653.848 1039.59 653.905 1039.44 653.905H1038.65C1038.59 653.905 1038.56 653.935 1038.56 653.995V657.035C1038.56 657.188 1038.5 657.321 1038.39 657.435C1038.27 657.548 1038.14 657.605 1037.99 657.605H1037.18C1037.02 657.605 1036.89 657.548 1036.78 657.435C1036.66 657.321 1036.61 657.188 1036.61 657.035V653.995C1036.61 653.935 1036.58 653.905 1036.52 653.905H1036.08C1035.92 653.905 1035.79 653.848 1035.68 653.735C1035.56 653.621 1035.51 653.488 1035.51 653.335V653.175C1035.51 653.021 1035.56 652.888 1035.68 652.775C1035.79 652.661 1035.92 652.605 1036.08 652.605H1036.52C1036.58 652.605 1036.61 652.575 1036.61 652.515V652.405C1036.61 651.645 1036.78 651.088 1037.14 650.735C1037.49 650.381 1038.05 650.205 1038.81 650.205C1039.04 650.205 1039.29 650.221 1039.56 650.255Z" fill="black"/>
</g>
<g filter="url(#filter28_d_1_4)">
<path d="M874.275 768.152C877.157 766.569 881.864 766.146 889.316 767.137C896.595 768.6 903.553 772.62 908.633 777.088C911.174 779.323 913.217 781.645 914.585 783.777C915.976 785.942 916.584 787.776 916.484 789.073C916.366 790.61 915.869 791.879 914.949 792.912C914.019 793.957 912.591 794.834 910.496 795.461C906.278 796.724 899.599 796.904 889.656 795.664C880.843 793.699 875.878 790.298 873.146 786.783C870.409 783.263 869.824 779.516 869.98 776.705C870.22 772.38 871.514 769.667 874.275 768.152Z" fill="url(#paint37_linear_1_4)" stroke="url(#paint38_linear_1_4)" stroke-width="2"/>
<line x1="898.456" y1="783.605" x2="898.456" y2="790.605" stroke="black"/>
<line x1="894.956" y1="787.105" x2="901.956" y2="787.105" stroke="black"/>
<line x1="879.765" y1="774.017" x2="887.765" y2="785.017" stroke="black" stroke-width="2"/>
<line y1="-1" x2="13.6015" y2="-1" transform="matrix(-0.588172 0.808736 0.808736 0.588172 888.957 774.605)" stroke="black" stroke-width="2"/>
<line y1="-1" x2="13.6015" y2="-1" transform="matrix(-1 -8.74228e-08 -8.74228e-08 1 890.558 780.605)" stroke="black" stroke-width="2"/>
</g>
<g filter="url(#filter29_d_1_4)">
<path d="M871.275 724.152C874.157 722.569 878.864 722.146 886.316 723.137C893.595 724.6 900.553 728.62 905.633 733.088C908.174 735.323 910.217 737.645 911.585 739.777C912.976 741.942 913.584 743.776 913.484 745.073C913.366 746.61 912.869 747.879 911.949 748.912C911.019 749.957 909.591 750.834 907.496 751.461C903.278 752.724 896.599 752.904 886.656 751.664C877.843 749.699 872.878 746.298 870.146 742.783C867.409 739.263 866.824 735.516 866.98 732.705C867.22 728.38 868.514 725.667 871.275 724.152Z" fill="url(#paint39_linear_1_4)" stroke="url(#paint40_linear_1_4)" stroke-width="2"/>
<path d="M885.286 744.305C885.546 744.305 885.753 744.198 885.906 743.985C886.06 743.765 886.136 743.438 886.136 743.005C886.136 742.138 885.853 741.705 885.286 741.705C885.073 741.705 884.876 741.785 884.696 741.945C884.523 742.105 884.436 742.275 884.436 742.455V743.555C884.436 743.735 884.523 743.905 884.696 744.065C884.876 744.225 885.073 744.305 885.286 744.305ZM885.986 740.305C886.6 740.305 887.086 740.538 887.446 741.005C887.806 741.465 887.986 742.131 887.986 743.005C887.986 743.858 887.796 744.521 887.416 744.995C887.043 745.468 886.566 745.705 885.986 745.705C885.46 745.705 884.97 745.505 884.516 745.105C884.51 745.098 884.503 745.095 884.496 745.095C884.49 745.095 884.486 745.098 884.486 745.105V747.235C884.486 747.388 884.43 747.521 884.316 747.635C884.203 747.748 884.07 747.805 883.916 747.805H883.156C883.003 747.805 882.87 747.748 882.756 747.635C882.643 747.521 882.586 747.388 882.586 747.235V740.975C882.586 740.821 882.643 740.688 882.756 740.575C882.87 740.461 883.003 740.405 883.156 740.405H883.836C883.996 740.405 884.133 740.461 884.246 740.575C884.36 740.681 884.42 740.815 884.426 740.975V741.055C884.426 741.061 884.43 741.065 884.436 741.065C884.443 741.065 884.45 741.061 884.456 741.055C884.87 740.555 885.38 740.305 885.986 740.305ZM892.292 743.555V742.455C892.292 742.275 892.202 742.105 892.022 741.945C891.848 741.785 891.655 741.705 891.442 741.705C890.875 741.705 890.592 742.138 890.592 743.005C890.592 743.438 890.668 743.765 890.822 743.985C890.975 744.198 891.182 744.305 891.442 744.305C891.655 744.305 891.848 744.225 892.022 744.065C892.202 743.905 892.292 743.735 892.292 743.555ZM893.572 740.405C893.725 740.405 893.858 740.461 893.972 740.575C894.085 740.688 894.142 740.821 894.142 740.975V747.235C894.142 747.388 894.085 747.521 893.972 747.635C893.858 747.748 893.725 747.805 893.572 747.805H892.812C892.658 747.805 892.525 747.748 892.412 747.635C892.298 747.521 892.242 747.388 892.242 747.235V745.105C892.242 745.098 892.238 745.095 892.232 745.095C892.225 745.095 892.218 745.098 892.212 745.105C891.758 745.505 891.268 745.705 890.742 745.705C890.162 745.705 889.682 745.468 889.302 744.995C888.928 744.521 888.742 743.858 888.742 743.005C888.742 742.131 888.922 741.465 889.282 741.005C889.642 740.538 890.128 740.305 890.742 740.305C891.348 740.305 891.858 740.555 892.272 741.055C892.278 741.061 892.285 741.065 892.292 741.065C892.298 741.065 892.302 741.061 892.302 741.055V740.975C892.308 740.815 892.368 740.681 892.482 740.575C892.595 740.461 892.732 740.405 892.892 740.405H893.572ZM899.029 740.425C899.182 740.405 899.316 740.451 899.429 740.565C899.542 740.678 899.599 740.815 899.599 740.975V741.235C899.599 741.388 899.546 741.521 899.439 741.635C899.332 741.741 899.199 741.805 899.039 741.825C898.526 741.891 898.116 742.085 897.809 742.405C897.502 742.718 897.349 743.101 897.349 743.555V745.035C897.349 745.188 897.292 745.321 897.179 745.435C897.066 745.548 896.932 745.605 896.779 745.605H895.969C895.816 745.605 895.682 745.548 895.569 745.435C895.456 745.321 895.399 745.188 895.399 745.035V740.975C895.399 740.821 895.456 740.688 895.569 740.575C895.682 740.461 895.816 740.405 895.969 740.405H896.729C896.882 740.405 897.016 740.461 897.129 740.575C897.242 740.688 897.299 740.821 897.299 740.975V741.395C897.299 741.401 897.302 741.405 897.309 741.405C897.316 741.405 897.322 741.401 897.329 741.395C897.749 740.841 898.316 740.518 899.029 740.425ZM902.717 742.255C903.477 742.355 904.017 742.548 904.337 742.835C904.657 743.115 904.817 743.521 904.817 744.055C904.817 744.581 904.627 744.988 904.247 745.275C903.867 745.561 903.307 745.705 902.567 745.705C902.021 745.705 901.471 745.651 900.917 745.545C900.757 745.511 900.624 745.428 900.517 745.295C900.417 745.161 900.367 745.008 900.367 744.835V744.575C900.367 744.435 900.424 744.325 900.537 744.245C900.651 744.165 900.774 744.141 900.907 744.175C901.407 744.295 901.877 744.355 902.317 744.355C902.684 744.355 902.867 744.248 902.867 744.035C902.867 743.935 902.837 743.861 902.777 743.815C902.717 743.768 902.597 743.731 902.417 743.705C901.677 743.585 901.141 743.378 900.807 743.085C900.481 742.791 900.317 742.398 900.317 741.905C900.317 741.398 900.511 741.005 900.897 740.725C901.291 740.445 901.881 740.305 902.667 740.305C903.187 740.305 903.667 740.338 904.107 740.405C904.274 740.431 904.407 740.508 904.507 740.635C904.614 740.761 904.667 740.908 904.667 741.075V741.285C904.667 741.425 904.607 741.541 904.487 741.635C904.374 741.721 904.247 741.751 904.107 741.725C903.701 741.645 903.284 741.605 902.857 741.605C902.637 741.605 902.484 741.628 902.397 741.675C902.311 741.721 902.267 741.798 902.267 741.905C902.267 742.105 902.417 742.221 902.717 742.255Z" fill="black"/>
<path d="M874.068 729.733C873.823 729.733 873.61 729.647 873.428 729.477C873.247 729.295 873.156 729.082 873.156 728.837C873.156 728.591 873.247 728.378 873.428 728.197C873.61 728.015 873.823 727.925 874.068 727.925H880.196C880.442 727.925 880.655 728.015 880.836 728.197C881.018 728.378 881.108 728.591 881.108 728.837C881.108 729.423 880.948 729.989 880.628 730.533C879.22 732.965 878.015 735.701 877.012 738.741C876.927 738.997 876.772 739.205 876.548 739.365C876.335 739.525 876.095 739.605 875.828 739.605H875.268C875.044 739.605 874.868 739.514 874.74 739.333C874.612 739.151 874.586 738.954 874.66 738.741C875.834 735.487 877.268 732.506 878.964 729.797V729.765C878.964 729.743 878.959 729.733 878.948 729.733H874.068Z" fill="black"/>
</g>
<g filter="url(#filter30_d_1_4)">
<path d="M868.275 680.152C871.157 678.569 875.864 678.146 883.316 679.137C890.595 680.6 897.553 684.62 902.633 689.088C905.174 691.323 907.217 693.645 908.585 695.777C909.976 697.942 910.584 699.776 910.484 701.073C910.366 702.61 909.869 703.879 908.949 704.912C908.019 705.957 906.591 706.834 904.496 707.461C900.278 708.724 893.599 708.904 883.656 707.664C874.843 705.699 869.878 702.298 867.146 698.783C864.409 695.263 863.824 691.516 863.98 688.705C864.22 684.38 865.514 681.667 868.275 680.152Z" fill="url(#paint41_linear_1_4)" stroke="url(#paint42_linear_1_4)" stroke-width="2"/>
<path d="M887.736 699.355V698.505C887.736 698.271 887.66 698.081 887.506 697.935C887.353 697.781 887.163 697.705 886.936 697.705C886.403 697.705 886.136 698.105 886.136 698.905C886.136 699.285 886.206 699.571 886.346 699.765C886.493 699.958 886.69 700.055 886.936 700.055C887.156 700.055 887.343 699.985 887.496 699.845C887.656 699.705 887.736 699.541 887.736 699.355ZM889.016 696.405C889.17 696.405 889.303 696.461 889.416 696.575C889.53 696.688 889.586 696.821 889.586 696.975V701.105C889.586 701.998 889.313 702.688 888.766 703.175C888.226 703.661 887.466 703.905 886.486 703.905C886.106 703.905 885.726 703.875 885.346 703.815C885.186 703.788 885.053 703.708 884.946 703.575C884.84 703.448 884.786 703.301 884.786 703.135V702.725C884.786 702.585 884.84 702.475 884.946 702.395C885.06 702.321 885.186 702.301 885.326 702.335C885.626 702.415 885.98 702.455 886.386 702.455C886.853 702.455 887.193 702.351 887.406 702.145C887.626 701.938 887.736 701.591 887.736 701.105V700.855C887.736 700.848 887.733 700.845 887.726 700.845C887.713 700.845 887.706 700.848 887.706 700.855C887.346 701.255 886.873 701.455 886.286 701.455C885.706 701.455 885.226 701.228 884.846 700.775C884.473 700.315 884.286 699.691 884.286 698.905C884.286 698.078 884.466 697.438 884.826 696.985C885.193 696.531 885.68 696.305 886.286 696.305C886.866 696.305 887.36 696.555 887.766 697.055C887.773 697.061 887.78 697.065 887.786 697.065C887.793 697.065 887.796 697.061 887.796 697.055V696.975C887.803 696.815 887.863 696.681 887.976 696.575C888.09 696.461 888.226 696.405 888.386 696.405H889.016ZM894.296 696.305C894.916 696.305 895.353 696.485 895.606 696.845C895.866 697.198 895.996 697.851 895.996 698.805V701.035C895.996 701.188 895.94 701.321 895.826 701.435C895.713 701.548 895.58 701.605 895.426 701.605H894.716C894.563 701.605 894.43 701.548 894.316 701.435C894.203 701.321 894.146 701.188 894.146 701.035V699.005C894.146 698.511 894.103 698.188 894.016 698.035C893.936 697.881 893.78 697.805 893.546 697.805C893.36 697.805 893.186 697.878 893.026 698.025C892.873 698.171 892.796 698.331 892.796 698.505V701.035C892.796 701.188 892.74 701.321 892.626 701.435C892.513 701.548 892.38 701.605 892.226 701.605H891.466C891.313 701.605 891.18 701.548 891.066 701.435C890.953 701.321 890.896 701.188 890.896 701.035V694.675C890.896 694.521 890.953 694.388 891.066 694.275C891.18 694.161 891.313 694.105 891.466 694.105H892.226C892.38 694.105 892.513 694.161 892.626 694.275C892.74 694.388 892.796 694.521 892.796 694.675V696.895C892.796 696.901 892.8 696.905 892.806 696.905C892.813 696.905 892.82 696.901 892.826 696.895C893.3 696.501 893.79 696.305 894.296 696.305ZM898.834 696.405C898.987 696.405 899.12 696.461 899.234 696.575C899.347 696.688 899.404 696.821 899.404 696.975V701.035C899.404 701.188 899.347 701.321 899.234 701.435C899.12 701.548 898.987 701.605 898.834 701.605H897.974C897.82 701.605 897.687 701.548 897.574 701.435C897.46 701.321 897.404 701.188 897.404 701.035V696.975C897.404 696.821 897.46 696.688 897.574 696.575C897.687 696.461 897.82 696.405 897.974 696.405H898.834ZM898.834 694.105C898.987 694.105 899.12 694.161 899.234 694.275C899.347 694.388 899.404 694.521 899.404 694.675V694.935C899.404 695.088 899.347 695.221 899.234 695.335C899.12 695.448 898.987 695.505 898.834 695.505H897.974C897.82 695.505 897.687 695.448 897.574 695.335C897.46 695.221 897.404 695.088 897.404 694.935V694.675C897.404 694.521 897.46 694.388 897.574 694.275C897.687 694.161 897.82 694.105 897.974 694.105H898.834Z" fill="black"/>
<path d="M872.26 691.397C872.26 691.407 872.255 691.413 872.244 691.413C872.244 691.413 872.244 691.418 872.244 691.429C872.244 691.439 872.25 691.445 872.26 691.445H875.316C875.402 691.445 875.444 691.397 875.444 691.301V686.869C875.444 686.858 875.439 686.853 875.428 686.853H875.412L872.26 691.397ZM871.044 693.205C870.81 693.205 870.602 693.119 870.42 692.949C870.25 692.778 870.164 692.57 870.164 692.325C870.164 691.727 870.335 691.194 870.676 690.725L874.932 684.661C875.274 684.17 875.748 683.925 876.356 683.925H876.708C876.954 683.925 877.167 684.015 877.348 684.197C877.53 684.378 877.62 684.591 877.62 684.837V691.301C877.62 691.397 877.663 691.445 877.748 691.445H878.516C878.762 691.445 878.97 691.53 879.14 691.701C879.311 691.871 879.396 692.079 879.396 692.325C879.396 692.57 879.311 692.778 879.14 692.949C878.97 693.119 878.762 693.205 878.516 693.205H877.748C877.663 693.205 877.62 693.253 877.62 693.349V694.693C877.62 694.938 877.53 695.151 877.348 695.333C877.167 695.514 876.954 695.605 876.708 695.605H876.356C876.111 695.605 875.898 695.514 875.716 695.333C875.535 695.151 875.444 694.938 875.444 694.693V693.349C875.444 693.253 875.402 693.205 875.316 693.205H871.044Z" fill="black"/>
</g>
<g filter="url(#filter31_d_1_4)">
<path d="M865.275 637.152C868.157 635.569 872.864 635.146 880.316 636.137C887.595 637.6 894.553 641.62 899.633 646.088C902.174 648.323 904.217 650.645 905.585 652.777C906.976 654.942 907.584 656.776 907.484 658.073C907.366 659.61 906.869 660.879 905.949 661.912C905.019 662.957 903.591 663.834 901.496 664.461C897.278 665.724 890.599 665.904 880.656 664.664C871.843 662.699 866.878 659.298 864.146 655.783C861.409 652.263 860.824 648.516 860.98 645.705C861.22 641.38 862.514 638.667 865.275 637.152Z" fill="url(#paint43_linear_1_4)" stroke="url(#paint44_linear_1_4)" stroke-width="2"/>
<path d="M867.324 645.229C867.175 645.346 867.015 645.362 866.844 645.277C866.684 645.191 866.604 645.058 866.604 644.877V644.237C866.604 643.639 866.844 643.154 867.324 642.781L869.036 641.469C869.516 641.106 870.06 640.925 870.668 640.925H871.148C871.394 640.925 871.602 641.015 871.772 641.197C871.954 641.378 872.044 641.591 872.044 641.837V651.693C872.044 651.938 871.954 652.151 871.772 652.333C871.602 652.514 871.394 652.605 871.148 652.605H870.668C870.423 652.605 870.21 652.514 870.028 652.333C869.847 652.151 869.756 651.938 869.756 651.693V643.389L869.74 643.373L869.724 643.389L867.324 645.229Z" fill="black"/>
<circle cx="881.956" cy="654.605" r="4" stroke="black" stroke-width="2"/>
<circle cx="894.956" cy="654.605" r="4" stroke="black" stroke-width="2"/>
<rect x="881.956" y="657.605" width="13" height="2" fill="black"/>
</g>
<defs>
<filter id="filter0_f_1_4" x="759" y="786" width="400" height="118" filterUnits="userSpaceOnUse" color-interpolation-filters="sRGB">
<feFlood flood-opacity="0" result="BackgroundImageFix"/>
<feBlend mode="normal" in="SourceGraphic" in2="BackgroundImageFix" result="shape"/>
<feGaussianBlur stdDeviation="25" result="effect1_foregroundBlur_1_4"/>
</filter>
<filter id="filter1_f_1_4" x="849" y="837" width="229" height="28" filterUnits="userSpaceOnUse" color-interpolation-filters="sRGB">
<feFlood flood-opacity="0" result="BackgroundImageFix"/>
<feBlend mode="normal" in="SourceGraphic" in2="BackgroundImageFix" result="shape"/>
<feGaussianBlur stdDeviation="4" result="effect1_foregroundBlur_1_4"/>
</filter>
<filter id="filter2_f_1_4" x="992" y="226.5" width="98.4565" height="116.105" filterUnits="userSpaceOnUse" color-interpolation-filters="sRGB">
<feFlood flood-opacity="0" result="BackgroundImageFix"/>
<feBlend mode="normal" in="SourceGraphic" in2="BackgroundImageFix" result="shape"/>
<feGaussianBlur stdDeviation="2" result="effect1_foregroundBlur_1_4"/>
</filter>
<filter id="filter3_f_1_4" x="824.956" y="226.605" width="94.5" height="190.5" filterUnits="userSpaceOnUse" color-interpolation-filters="sRGB">
<feFlood flood-opacity="0" result="BackgroundImageFix"/>
<feBlend mode="normal" in="SourceGraphic" in2="BackgroundImageFix" result="shape"/>
<feGaussianBlur stdDeviation="2" result="effect1_foregroundBlur_1_4"/>
</filter>
<filter id="filter4_f_1_4" x="831.304" y="399.605" width="38.5673" height="428.604" filterUnits="userSpaceOnUse" color-interpolation-filters="sRGB">
<feFlood flood-opacity="0" result="BackgroundImageFix"/>
<feBlend mode="normal" in="SourceGraphic" in2="BackgroundImageFix" result="shape"/>
<feGaussianBlur stdDeviation="2.5" result="effect1_foregroundBlur_1_4"/>
</filter>
<filter id="filter5_f_1_4" x="1054.96" y="408.605" width="38.5673" height="428.604" filterUnits="userSpaceOnUse" color-interpolation-filters="sRGB">
<feFlood flood-opacity="0" result="BackgroundImageFix"/>
<feBlend mode="normal" in="SourceGraphic" in2="BackgroundImageFix" result="shape"/>
<feGaussianBlur stdDeviation="2.5" result="effect1_foregroundBlur_1_4"/>
</filter>
<filter id="filter6_ii_1_4" x="861.956" y="389.605" width="200" height="145" filterUnits="userSpaceOnUse" color-interpolation-filters="sRGB">
<feFlood flood-opacity="0" result="BackgroundImageFix"/>
<feBlend mode="normal" in="SourceGraphic" in2="BackgroundImageFix" result="shape"/>
<feColorMatrix in="SourceAlpha" type="matrix" values="0 0 0 0 0 0 0 0 0 0 0 0 0 0 0 0 0 0 127 0" result="hardAlpha"/>
<feOffset dx="6" dy="6"/>
<feGaussianBlur stdDeviation="4"/>
<feComposite in2="hardAlpha" operator="arithmetic" k2="-1" k3="1"/>
<feColorMatrix type="matrix" values="0 0 0 0 0 0 0 0 0 0 0 0 0 0 0 0 0 0 0.32 0"/>
<feBlend mode="normal" in2="shape" result="effect1_innerShadow_1_4"/>
<feColorMatrix in="SourceAlpha" type="matrix" values="0 0 0 0 0 0 0 0 0 0 0 0 0 0 0 0 0 0 127 0" result="hardAlpha"/>
<feOffset dx="-5" dy="-5"/>
<feGaussianBlur stdDeviation="4"/>
<feComposite in2="hardAlpha" operator="arithmetic" k2="-1" k3="1"/>
<feColorMatrix type="matrix" values="0 0 0 0 0 0 0 0 0 0 0 0 0 0 0 0 0 0 0.4 0"/>
<feBlend mode="normal" in2="effect1_innerShadow_1_4" result="effect2_innerShadow_1_4"/>
</filter>
<filter id="filter7_f_1_4" x="858" y="437" width="206" height="96" filterUnits="userSpaceOnUse" color-interpolation-filters="sRGB">
<feFlood flood-opacity="0" result="BackgroundImageFix"/>
<feBlend mode="normal" in="SourceGraphic" in2="BackgroundImageFix" result="shape"/>
<feGaussianBlur stdDeviation="12.5" result="effect1_foregroundBlur_1_4"/>
</filter>
<filter id="filter8_f_1_4" x="1040.46" y="390.824" width="23" height="120.781" filterUnits="userSpaceOnUse" color-interpolation-filters="sRGB">
<feFlood flood-opacity="0" result="BackgroundImageFix"/>
<feBlend mode="normal" in="SourceGraphic" in2="BackgroundImageFix" result="shape"/>
<feGaussianBlur stdDeviation="2" result="effect1_foregroundBlur_1_4"/>
</filter>
<filter id="filter9_f_1_4" x="859.956" y="391.605" width="18" height="51.5057" filterUnits="userSpaceOnUse" color-interpolation-filters="sRGB">
<feFlood flood-opacity="0" result="BackgroundImageFix"/>
<feBlend mode="normal" in="SourceGraphic" in2="BackgroundImageFix" result="shape"/>
<feGaussianBlur stdDeviation="2" result="effect1_foregroundBlur_1_4"/>
</filter>
<filter id="filter10_f_1_4" x="880.956" y="385.605" width="161" height="11" filterUnits="userSpaceOnUse" color-interpolation-filters="sRGB">
<feFlood flood-opacity="0" result="BackgroundImageFix"/>
<feBlend mode="normal" in="SourceGraphic" in2="BackgroundImageFix" result="shape"/>
<feGaussianBlur stdDeviation="2" result="effect1_foregroundBlur_1_4"/>
</filter>
<filter id="filter11_i_1_4" x="917.956" y="345.605" width="85" height="20" filterUnits="userSpaceOnUse" color-interpolation-filters="sRGB">
<feFlood flood-opacity="0" result="BackgroundImageFix"/>
<feBlend mode="normal" in="SourceGraphic" in2="BackgroundImageFix" result="shape"/>
<feColorMatrix in="SourceAlpha" type="matrix" values="0 0 0 0 0 0 0 0 0 0 0 0 0 0 0 0 0 0 127 0" result="hardAlpha"/>
<feOffset dx="-2" dy="-2"/>
<feGaussianBlur stdDeviation="1"/>
<feComposite in2="hardAlpha" operator="arithmetic" k2="-1" k3="1"/>
<feColorMatrix type="matrix" values="0 0 0 0 1 0 0 0 0 1 0 0 0 0 1 0 0 0 0.35 0"/>
<feBlend mode="normal" in2="shape" result="effect1_innerShadow_1_4"/>
</filter>
<filter id="filter12_i_1_4" x="956.956" y="254.605" width="8" height="4" filterUnits="userSpaceOnUse" color-interpolation-filters="sRGB">
<feFlood flood-opacity="0" result="BackgroundImageFix"/>
<feBlend mode="normal" in="SourceGraphic" in2="BackgroundImageFix" result="shape"/>
<feColorMatrix in="SourceAlpha" type="matrix" values="0 0 0 0 0 0 0 0 0 0 0 0 0 0 0 0 0 0 127 0" result="hardAlpha"/>
<feOffset dx="-1"/>
<feGaussianBlur stdDeviation="0.5"/>
<feComposite in2="hardAlpha" operator="arithmetic" k2="-1" k3="1"/>
<feColorMatrix type="matrix" values="0 0 0 0 1 0 0 0 0 1 0 0 0 0 1 0 0 0 0.43 0"/>
<feBlend mode="normal" in2="shape" result="effect1_innerShadow_1_4"/>
</filter>
<filter id="filter13_i_1_4" x="956.956" y="268.605" width="8" height="4" filterUnits="userSpaceOnUse" color-interpolation-filters="sRGB">
<feFlood flood-opacity="0" result="BackgroundImageFix"/>
<feBlend mode="normal" in="SourceGraphic" in2="BackgroundImageFix" result="shape"/>
<feColorMatrix in="SourceAlpha" type="matrix" values="0 0 0 0 0 0 0 0 0 0 0 0 0 0 0 0 0 0 127 0" result="hardAlpha"/>
<feOffset dx="-1"/>
<feGaussianBlur stdDeviation="0.5"/>
<feComposite in2="hardAlpha" operator="arithmetic" k2="-1" k3="1"/>
<feColorMatrix type="matrix" values="0 0 0 0 1 0 0 0 0 1 0 0 0 0 1 0 0 0 0.43 0"/>
<feBlend mode="normal" in2="shape" result="effect1_innerShadow_1_4"/>
</filter>
<filter id="filter14_i_1_4" x="956.956" y="285.605" width="8" height="4" filterUnits="userSpaceOnUse" color-interpolation-filters="sRGB">
<feFlood flood-opacity="0" result="BackgroundImageFix"/>
<feBlend mode="normal" in="SourceGraphic" in2="BackgroundImageFix" result="shape"/>
<feColorMatrix in="SourceAlpha" type="matrix" values="0 0 0 0 0 0 0 0 0 0 0 0 0 0 0 0 0 0 127 0" result="hardAlpha"/>
<feOffset dx="-1"/>
<feGaussianBlur stdDeviation="0.5"/>
<feComposite in2="hardAlpha" operator="arithmetic" k2="-1" k3="1"/>
<feColorMatrix type="matrix" values="0 0 0 0 1 0 0 0 0 1 0 0 0 0 1 0 0 0 0.43 0"/>
<feBlend mode="normal" in2="shape" result="effect1_innerShadow_1_4"/>
</filter>
<filter id="filter15_i_1_4" x="956.956" y="301.605" width="8" height="4" filterUnits="userSpaceOnUse" color-interpolation-filters="sRGB">
<feFlood flood-opacity="0" result="BackgroundImageFix"/>
<feBlend mode="normal" in="SourceGraphic" in2="BackgroundImageFix" result="shape"/>
<feColorMatrix in="SourceAlpha" type="matrix" values="0 0 0 0 0 0 0 0 0 0 0 0 0 0 0 0 0 0 127 0" result="hardAlpha"/>
<feOffset dx="-1"/>
<feGaussianBlur stdDeviation="0.5"/>
<feComposite in2="hardAlpha" operator="arithmetic" k2="-1" k3="1"/>
<feColorMatrix type="matrix" values="0 0 0 0 1 0 0 0 0 1 0 0 0 0 1 0 0 0 0.43 0"/>
<feBlend mode="normal" in2="shape" result="effect1_innerShadow_1_4"/>
</filter>
<filter id="filter16_i_1_4" x="956.956" y="317.605" width="8" height="4" filterUnits="userSpaceOnUse" color-interpolation-filters="sRGB">
<feFlood flood-opacity="0" result="BackgroundImageFix"/>
<feBlend mode="normal" in="SourceGraphic" in2="BackgroundImageFix" result="shape"/>
<feColorMatrix in="SourceAlpha" type="matrix" values="0 0 0 0 0 0 0 0 0 0 0 0 0 0 0 0 0 0 127 0" result="hardAlpha"/>
<feOffset dx="-1"/>
<feGaussianBlur stdDeviation="0.5"/>
<feComposite in2="hardAlpha" operator="arithmetic" k2="-1" k3="1"/>
<feColorMatrix type="matrix" values="0 0 0 0 1 0 0 0 0 1 0 0 0 0 1 0 0 0 0.43 0"/>
<feBlend mode="normal" in2="shape" result="effect1_innerShadow_1_4"/>
</filter>
<filter id="filter17_d_1_4" x="905.956" y="553.605" width="109.5" height="35.5" filterUnits="userSpaceOnUse" color-interpolation-filters="sRGB">
<feFlood flood-opacity="0" result="BackgroundImageFix"/>
<feColorMatrix in="SourceAlpha" type="matrix" values="0 0 0 0 0 0 0 0 0 0 0 0 0 0 0 0 0 0 127 0" result="hardAlpha"/>
<feOffset dy="4"/>
<feGaussianBlur stdDeviation="2"/>
<feColorMatrix type="matrix" values="0 0 0 0 0 0 0 0 0 0 0 0 0 0 0 0 0 0 0.25 0"/>
<feBlend mode="normal" in2="BackgroundImageFix" result="effect1_dropShadow_1_4"/>
<feBlend mode="normal" in="SourceGraphic" in2="effect1_dropShadow_1_4" result="shape"/>
</filter>
<filter id="filter18_di_1_4" x="971.926" y="561.95" width="85.1616" height="73.6191" filterUnits="userSpaceOnUse" color-interpolation-filters="sRGB">
<feFlood flood-opacity="0" result="BackgroundImageFix"/>
<feColorMatrix in="SourceAlpha" type="matrix" values="0 0 0 0 0 0 0 0 0 0 0 0 0 0 0 0 0 0 127 0" result="hardAlpha"/>
<feOffset dy="2"/>
<feGaussianBlur stdDeviation="1.5"/>
<feColorMatrix type="matrix" values="0 0 0 0 0 0 0 0 0 0 0 0 0 0 0 0 0 0 0.6 0"/>
<feBlend mode="normal" in2="BackgroundImageFix" result="effect1_dropShadow_1_4"/>
<feBlend mode="normal" in="SourceGraphic" in2="effect1_dropShadow_1_4" result="shape"/>
<feColorMatrix in="SourceAlpha" type="matrix" values="0 0 0 0 0 0 0 0 0 0 0 0 0 0 0 0 0 0 127 0" result="hardAlpha"/>
<feOffset dx="4" dy="4"/>
<feGaussianBlur stdDeviation="2"/>
<feComposite in2="hardAlpha" operator="arithmetic" k2="-1" k3="1"/>
<feColorMatrix type="matrix" values="0 0 0 0 1 0 0 0 0 1 0 0 0 0 1 0 0 0 0.37 0"/>
<feBlend mode="normal" in2="shape" result="effect2_innerShadow_1_4"/>
</filter>
<filter id="filter19_di_1_4" x="865.457" y="565.569" width="58.3923" height="53.4573" filterUnits="userSpaceOnUse" color-interpolation-filters="sRGB">
<feFlood flood-opacity="0" result="BackgroundImageFix"/>
<feColorMatrix in="SourceAlpha" type="matrix" values="0 0 0 0 0 0 0 0 0 0 0 0 0 0 0 0 0 0 127 0" result="hardAlpha"/>
<feOffset dy="2"/>
<feGaussianBlur stdDeviation="1.5"/>
<feColorMatrix type="matrix" values="0 0 0 0 0 0 0 0 0 0 0 0 0 0 0 0 0 0 0.6 0"/>
<feBlend mode="normal" in2="BackgroundImageFix" result="effect1_dropShadow_1_4"/>
<feBlend mode="normal" in="SourceGraphic" in2="effect1_dropShadow_1_4" result="shape"/>
<feColorMatrix in="SourceAlpha" type="matrix" values="0 0 0 0 0 0 0 0 0 0 0 0 0 0 0 0 0 0 127 0" result="hardAlpha"/>
<feOffset dx="4" dy="4"/>
<feGaussianBlur stdDeviation="2"/>
<feComposite in2="hardAlpha" operator="arithmetic" k2="-1" k3="1"/>
<feColorMatrix type="matrix" values="0 0 0 0 1 0 0 0 0 1 0 0 0 0 1 0 0 0 0.7 0"/>
<feBlend mode="normal" in2="shape" result="effect2_innerShadow_1_4"/>
</filter>
<filter id="filter20_d_1_4" x="932.956" y="776.605" width="61" height="38" filterUnits="userSpaceOnUse" color-interpolation-filters="sRGB">
<feFlood flood-opacity="0" result="BackgroundImageFix"/>
<feColorMatrix in="SourceAlpha" type="matrix" values="0 0 0 0 0 0 0 0 0 0 0 0 0 0 0 0 0 0 127 0" result="hardAlpha"/>
<feOffset dx="2" dy="2"/>
<feGaussianBlur stdDeviation="2"/>
<feColorMatrix type="matrix" values="0 0 0 0 0 0 0 0 0 0 0 0 0 0 0 0 0 0 0.43 0"/>
<feBlend mode="normal" in2="BackgroundImageFix" result="effect1_dropShadow_1_4"/>
<feBlend mode="normal" in="SourceGraphic" in2="effect1_dropShadow_1_4" result="shape"/>
</filter>
<filter id="filter21_d_1_4" x="932.956" y="731.605" width="61" height="38" filterUnits="userSpaceOnUse" color-interpolation-filters="sRGB">
<feFlood flood-opacity="0" result="BackgroundImageFix"/>
<feColorMatrix in="SourceAlpha" type="matrix" values="0 0 0 0 0 0 0 0 0 0 0 0 0 0 0 0 0 0 127 0" result="hardAlpha"/>
<feOffset dx="2" dy="2"/>
<feGaussianBlur stdDeviation="2"/>
<feColorMatrix type="matrix" values="0 0 0 0 0 0 0 0 0 0 0 0 0 0 0 0 0 0 0.43 0"/>
<feBlend mode="normal" in2="BackgroundImageFix" result="effect1_dropShadow_1_4"/>
<feBlend mode="normal" in="SourceGraphic" in2="effect1_dropShadow_1_4" result="shape"/>
</filter>
<filter id="filter22_d_1_4" x="932.956" y="687.605" width="61" height="38" filterUnits="userSpaceOnUse" color-interpolation-filters="sRGB">
<feFlood flood-opacity="0" result="BackgroundImageFix"/>
<feColorMatrix in="SourceAlpha" type="matrix" values="0 0 0 0 0 0 0 0 0 0 0 0 0 0 0 0 0 0 127 0" result="hardAlpha"/>
<feOffset dx="2" dy="2"/>
<feGaussianBlur stdDeviation="2"/>
<feColorMatrix type="matrix" values="0 0 0 0 0 0 0 0 0 0 0 0 0 0 0 0 0 0 0.43 0"/>
<feBlend mode="normal" in2="BackgroundImageFix" result="effect1_dropShadow_1_4"/>
<feBlend mode="normal" in="SourceGraphic" in2="effect1_dropShadow_1_4" result="shape"/>
</filter>
<filter id="filter23_d_1_4" x="932.956" y="643.605" width="61" height="38" filterUnits="userSpaceOnUse" color-interpolation-filters="sRGB">
<feFlood flood-opacity="0" result="BackgroundImageFix"/>
<feColorMatrix in="SourceAlpha" type="matrix" values="0 0 0 0 0 0 0 0 0 0 0 0 0 0 0 0 0 0 127 0" result="hardAlpha"/>
<feOffset dx="2" dy="2"/>
<feGaussianBlur stdDeviation="2"/>
<feColorMatrix type="matrix" values="0 0 0 0 0 0 0 0 0 0 0 0 0 0 0 0 0 0 0.43 0"/>
<feBlend mode="normal" in2="BackgroundImageFix" result="effect1_dropShadow_1_4"/>
<feBlend mode="normal" in="SourceGraphic" in2="effect1_dropShadow_1_4" result="shape"/>
</filter>
<filter id="filter24_d_1_4" x="1003.96" y="762.605" width="57" height="41.2079" filterUnits="userSpaceOnUse" color-interpolation-filters="sRGB">
<feFlood flood-opacity="0" result="BackgroundImageFix"/>
<feColorMatrix in="SourceAlpha" type="matrix" values="0 0 0 0 0 0 0 0 0 0 0 0 0 0 0 0 0 0 127 0" result="hardAlpha"/>
<feOffset dx="2" dy="2"/>
<feGaussianBlur stdDeviation="2"/>
<feColorMatrix type="matrix" values="0 0 0 0 0 0 0 0 0 0 0 0 0 0 0 0 0 0 0.43 0"/>
<feBlend mode="normal" in2="BackgroundImageFix" result="effect1_dropShadow_1_4"/>
<feBlend mode="normal" in="SourceGraphic" in2="effect1_dropShadow_1_4" result="shape"/>
</filter>
<filter id="filter25_d_1_4" x="1005.96" y="718.605" width="57" height="41.2079" filterUnits="userSpaceOnUse" color-interpolation-filters="sRGB">
<feFlood flood-opacity="0" result="BackgroundImageFix"/>
<feColorMatrix in="SourceAlpha" type="matrix" values="0 0 0 0 0 0 0 0 0 0 0 0 0 0 0 0 0 0 127 0" result="hardAlpha"/>
<feOffset dx="2" dy="2"/>
<feGaussianBlur stdDeviation="2"/>
<feColorMatrix type="matrix" values="0 0 0 0 0 0 0 0 0 0 0 0 0 0 0 0 0 0 0.43 0"/>
<feBlend mode="normal" in2="BackgroundImageFix" result="effect1_dropShadow_1_4"/>
<feBlend mode="normal" in="SourceGraphic" in2="effect1_dropShadow_1_4" result="shape"/>
</filter>
<filter id="filter26_d_1_4" x="1007.96" y="674.605" width="57" height="41.2079" filterUnits="userSpaceOnUse" color-interpolation-filters="sRGB">
<feFlood flood-opacity="0" result="BackgroundImageFix"/>
<feColorMatrix in="SourceAlpha" type="matrix" values="0 0 0 0 0 0 0 0 0 0 0 0 0 0 0 0 0 0 127 0" result="hardAlpha"/>
<feOffset dx="2" dy="2"/>
<feGaussianBlur stdDeviation="2"/>
<feColorMatrix type="matrix" values="0 0 0 0 0 0 0 0 0 0 0 0 0 0 0 0 0 0 0.43 0"/>
<feBlend mode="normal" in2="BackgroundImageFix" result="effect1_dropShadow_1_4"/>
<feBlend mode="normal" in="SourceGraphic" in2="effect1_dropShadow_1_4" result="shape"/>
</filter>
<filter id="filter27_d_1_4" x="1011.96" y="631.385" width="57" height="41.2079" filterUnits="userSpaceOnUse" color-interpolation-filters="sRGB">
<feFlood flood-opacity="0" result="BackgroundImageFix"/>
<feColorMatrix in="SourceAlpha" type="matrix" values="0 0 0 0 0 0 0 0 0 0 0 0 0 0 0 0 0 0 127 0" result="hardAlpha"/>
<feOffset dx="2" dy="2"/>
<feGaussianBlur stdDeviation="2"/>
<feColorMatrix type="matrix" values="0 0 0 0 0 0 0 0 0 0 0 0 0 0 0 0 0 0 0.43 0"/>
<feBlend mode="normal" in2="BackgroundImageFix" result="effect1_dropShadow_1_4"/>
<feBlend mode="normal" in="SourceGraphic" in2="effect1_dropShadow_1_4" result="shape"/>
</filter>
<filter id="filter28_d_1_4" x="866.956" y="763.605" width="56.5382" height="39.9017" filterUnits="userSpaceOnUse" color-interpolation-filters="sRGB">
<feFlood flood-opacity="0" result="BackgroundImageFix"/>
<feColorMatrix in="SourceAlpha" type="matrix" values="0 0 0 0 0 0 0 0 0 0 0 0 0 0 0 0 0 0 127 0" result="hardAlpha"/>
<feOffset dx="2" dy="2"/>
<feGaussianBlur stdDeviation="2"/>
<feColorMatrix type="matrix" values="0 0 0 0 0 0 0 0 0 0 0 0 0 0 0 0 0 0 0.43 0"/>
<feBlend mode="normal" in2="BackgroundImageFix" result="effect1_dropShadow_1_4"/>
<feBlend mode="normal" in="SourceGraphic" in2="effect1_dropShadow_1_4" result="shape"/>
</filter>
<filter id="filter29_d_1_4" x="863.956" y="719.605" width="56.5382" height="39.9017" filterUnits="userSpaceOnUse" color-interpolation-filters="sRGB">
<feFlood flood-opacity="0" result="BackgroundImageFix"/>
<feColorMatrix in="SourceAlpha" type="matrix" values="0 0 0 0 0 0 0 0 0 0 0 0 0 0 0 0 0 0 127 0" result="hardAlpha"/>
<feOffset dx="2" dy="2"/>
<feGaussianBlur stdDeviation="2"/>
<feColorMatrix type="matrix" values="0 0 0 0 0 0 0 0 0 0 0 0 0 0 0 0 0 0 0.43 0"/>
<feBlend mode="normal" in2="BackgroundImageFix" result="effect1_dropShadow_1_4"/>
<feBlend mode="normal" in="SourceGraphic" in2="effect1_dropShadow_1_4" result="shape"/>
</filter>
<filter id="filter30_d_1_4" x="860.956" y="675.605" width="56.5382" height="39.9017" filterUnits="userSpaceOnUse" color-interpolation-filters="sRGB">
<feFlood flood-opacity="0" result="BackgroundImageFix"/>
<feColorMatrix in="SourceAlpha" type="matrix" values="0 0 0 0 0 0 0 0 0 0 0 0 0 0 0 0 0 0 127 0" result="hardAlpha"/>
<feOffset dx="2" dy="2"/>
<feGaussianBlur stdDeviation="2"/>
<feColorMatrix type="matrix" values="0 0 0 0 0 0 0 0 0 0 0 0 0 0 0 0 0 0 0.43 0"/>
<feBlend mode="normal" in2="BackgroundImageFix" result="effect1_dropShadow_1_4"/>
<feBlend mode="normal" in="SourceGraphic" in2="effect1_dropShadow_1_4" result="shape"/>
</filter>
<filter id="filter31_d_1_4" x="857.956" y="632.605" width="56.5382" height="39.9017" filterUnits="userSpaceOnUse" color-interpolation-filters="sRGB">
<feFlood flood-opacity="0" result="BackgroundImageFix"/>
<feColorMatrix in="SourceAlpha" type="matrix" values="0 0 0 0 0 0 0 0 0 0 0 0 0 0 0 0 0 0 127 0" result="hardAlpha"/>
<feOffset dx="2" dy="2"/>
<feGaussianBlur stdDeviation="2"/>
<feColorMatrix type="matrix" values="0 0 0 0 0 0 0 0 0 0 0 0 0 0 0 0 0 0 0.43 0"/>
<feBlend mode="normal" in2="BackgroundImageFix" result="effect1_dropShadow_1_4"/>
<feBlend mode="normal" in="SourceGraphic" in2="effect1_dropShadow_1_4" result="shape"/>
</filter>
<radialGradient id="paint0_radial_1_4" cx="0" cy="0" r="1" gradientUnits="userSpaceOnUse" gradientTransform="translate(960 540) rotate(90) scale(540 960)">
<stop stop-opacity="0"/>
<stop stop-opacity="0"/>
<stop offset="0.0001" stop-opacity="0"/>
</radialGradient>
<linearGradient id="paint1_linear_1_4" x1="1109" y1="845" x2="809.082" y2="839.043" gradientUnits="userSpaceOnUse">
<stop stop-color="#443A3A" stop-opacity="0.68"/>
<stop offset="0.4875" stop-color="#302929"/>
<stop offset="1" stop-color="#443A3A" stop-opacity="0.68"/>
</linearGradient>
<linearGradient id="paint2_linear_1_4" x1="1073.23" y1="847.927" x2="857" y2="847.927" gradientUnits="userSpaceOnUse">
<stop stop-color="#403434" stop-opacity="0.73"/>
<stop offset="0.503125" stop-color="#111010"/>
<stop offset="1" stop-color="#413030" stop-opacity="0.75"/>
</linearGradient>
<linearGradient id="paint3_linear_1_4" x1="1058.46" y1="244.105" x2="960.439" y2="850.189" gradientUnits="userSpaceOnUse">
<stop stop-color="#363746"/>
<stop offset="1" stop-color="#424358"/>
</linearGradient>
<linearGradient id="paint4_linear_1_4" x1="892.956" y1="230.605" x2="812.956" y2="451.105" gradientUnits="userSpaceOnUse">
<stop stop-color="white" stop-opacity="0.5"/>
<stop offset="0.211458" stop-color="white" stop-opacity="0.86"/>
<stop offset="0.8" stop-color="white" stop-opacity="0.66"/>
<stop offset="1" stop-color="white" stop-opacity="0"/>
<stop offset="1" stop-color="white" stop-opacity="0.34"/>
</linearGradient>
<linearGradient id="paint5_linear_1_4" x1="850.587" y1="404.605" x2="850.587" y2="823.208" gradientUnits="userSpaceOnUse">
<stop offset="0.367708" stop-color="white"/>
<stop offset="1" stop-color="white" stop-opacity="0.49"/>
</linearGradient>
<linearGradient id="paint6_linear_1_4" x1="1074.24" y1="413.605" x2="1074.24" y2="832.208" gradientUnits="userSpaceOnUse">
<stop stop-color="white" stop-opacity="0.45"/>
<stop offset="0.378125" stop-color="white"/>
<stop offset="1" stop-color="white" stop-opacity="0.49"/>
</linearGradient>
<linearGradient id="paint7_linear_1_4" x1="1063.96" y1="275.105" x2="858.456" y2="557.105" gradientUnits="userSpaceOnUse">
<stop stop-color="#EFEEF6"/>
<stop offset="1" stop-color="#CBCCCE"/>
</linearGradient>
<linearGradient id="paint8_linear_1_4" x1="869.911" y1="241.157" x2="869.911" y2="586.605" gradientUnits="userSpaceOnUse">
<stop stop-color="white" stop-opacity="0"/>
<stop offset="0.164583" stop-color="white"/>
<stop offset="0.753125" stop-color="white" stop-opacity="0.46"/>
<stop offset="1" stop-color="white" stop-opacity="0.16"/>
</linearGradient>
<linearGradient id="paint9_linear_1_4" x1="1060.96" y1="250.105" x2="899.457" y2="639.105" gradientUnits="userSpaceOnUse">
<stop stop-color="#BABBBD" stop-opacity="0"/>
<stop offset="0.247917" stop-color="#BABBBD"/>
<stop offset="0.55" stop-color="#9D9D9D"/>
<stop offset="0.919792" stop-color="white" stop-opacity="0.35"/>
</linearGradient>
<linearGradient id="paint10_linear_1_4" x1="881.362" y1="256.148" x2="1021.36" y2="562.648" gradientUnits="userSpaceOnUse">
<stop stop-color="#7A7C94"/>
<stop offset="0.497917" stop-color="#3F4458"/>
</linearGradient>
<linearGradient id="paint11_linear_1_4" x1="858.456" y1="361.105" x2="916.5" y2="552.5" gradientUnits="userSpaceOnUse">
<stop stop-color="white" stop-opacity="0.39"/>
<stop offset="1" stop-opacity="0.41"/>
</linearGradient>
<linearGradient id="paint12_linear_1_4" x1="961" y1="462" x2="961" y2="508" gradientUnits="userSpaceOnUse">
<stop stop-color="#77A67E"/>
<stop stop-color="#C4C4C4"/>
<stop offset="0.0001" stop-color="#77A67E"/>
<stop offset="1" stop-color="#547659"/>
</linearGradient>
<linearGradient id="paint13_linear_1_4" x1="879.956" y1="405.105" x2="934.956" y2="465.605" gradientUnits="userSpaceOnUse">
<stop stop-color="white"/>
<stop offset="0.95625" stop-color="#C4C4C4" stop-opacity="0"/>
</linearGradient>
<linearGradient id="paint14_linear_1_4" x1="955.956" y1="289.105" x2="967.956" y2="289.105" gradientUnits="userSpaceOnUse">
<stop offset="0.20625" stop-color="#55586A"/>
<stop offset="1" stop-color="#707386"/>
</linearGradient>
<linearGradient id="paint15_linear_1_4" x1="916.456" y1="560.105" x2="1000.46" y2="571.105" gradientUnits="userSpaceOnUse">
<stop stop-color="#D6D5DA"/>
<stop offset="1" stop-color="#ADADAD"/>
</linearGradient>
<linearGradient id="paint16_linear_1_4" x1="920.956" y1="556.605" x2="991.456" y2="580.605" gradientUnits="userSpaceOnUse">
<stop stop-color="#E8E9ED"/>
<stop offset="1" stop-color="#D3D3D3"/>
</linearGradient>
<linearGradient id="paint17_linear_1_4" x1="978.972" y1="597.705" x2="1054.52" y2="581.849" gradientUnits="userSpaceOnUse">
<stop stop-color="#C8C6CB"/>
<stop offset="1" stop-color="#ACAAAD"/>
</linearGradient>
<linearGradient id="paint18_linear_1_4" x1="988.001" y1="582.417" x2="1036.8" y2="623.42" gradientUnits="userSpaceOnUse">
<stop stop-color="#E8E9ED"/>
<stop offset="1" stop-color="#757575" stop-opacity="0.07"/>
</linearGradient>
<linearGradient id="paint19_linear_1_4" x1="868.956" y1="577.473" x2="920.956" y2="597.973" gradientUnits="userSpaceOnUse">
<stop stop-color="#D4D5DA"/>
<stop offset="1" stop-color="#CDCDD5"/>
</linearGradient>
<linearGradient id="paint20_linear_1_4" x1="870.956" y1="565.33" x2="910.956" y2="618.83" gradientUnits="userSpaceOnUse">
<stop stop-color="#E9EAEE"/>
<stop offset="1" stop-color="#464646" stop-opacity="0.31"/>
</linearGradient>
<linearGradient id="paint21_linear_1_4" x1="939.456" y1="785.105" x2="984.456" y2="797.605" gradientUnits="userSpaceOnUse">
<stop stop-color="#E7E7E7"/>
<stop offset="1" stop-color="#CDC5C5"/>
</linearGradient>
<linearGradient id="paint22_linear_1_4" x1="934.956" y1="785.605" x2="989.456" y2="806.105" gradientUnits="userSpaceOnUse">
<stop stop-color="#D3D3D3"/>
<stop offset="1" stop-color="#EEEEEE"/>
</linearGradient>
<linearGradient id="paint23_linear_1_4" x1="939.456" y1="740.105" x2="984.456" y2="752.605" gradientUnits="userSpaceOnUse">
<stop stop-color="white"/>
<stop offset="1" stop-color="#CDC5C5"/>
</linearGradient>
<linearGradient id="paint24_linear_1_4" x1="934.956" y1="740.605" x2="989.456" y2="761.105" gradientUnits="userSpaceOnUse">
<stop stop-color="#D3D3D3"/>
<stop offset="1" stop-color="#EEEEEE"/>
</linearGradient>
<linearGradient id="paint25_linear_1_4" x1="939.456" y1="696.105" x2="984.456" y2="708.605" gradientUnits="userSpaceOnUse">
<stop stop-color="#EFEFEF"/>
<stop offset="1" stop-color="#CDC5C5"/>
</linearGradient>
<linearGradient id="paint26_linear_1_4" x1="934.956" y1="696.605" x2="989.456" y2="717.105" gradientUnits="userSpaceOnUse">
<stop stop-color="#D3D3D3"/>
<stop offset="1" stop-color="#EEEEEE"/>
</linearGradient>
<linearGradient id="paint27_linear_1_4" x1="939.456" y1="652.105" x2="984.456" y2="664.605" gradientUnits="userSpaceOnUse">
<stop stop-color="#E3E2E2"/>
<stop offset="1" stop-color="#B1B1B1"/>
</linearGradient>
<linearGradient id="paint28_linear_1_4" x1="934.956" y1="652.605" x2="989.456" y2="673.105" gradientUnits="userSpaceOnUse">
<stop stop-color="#D3D3D3"/>
<stop offset="1" stop-color="#EEEEEE"/>
</linearGradient>
<linearGradient id="paint29_linear_1_4" x1="1006.96" y1="787.324" x2="1052.96" y2="771.824" gradientUnits="userSpaceOnUse">
<stop offset="0.195833" stop-color="#DADADA"/>
<stop offset="1" stop-color="#B5B5B5"/>
</linearGradient>
<linearGradient id="paint30_linear_1_4" x1="1004.46" y1="776.824" x2="1060.96" y2="776.824" gradientUnits="userSpaceOnUse">
<stop stop-color="#F4F4F4" stop-opacity="0.44"/>
<stop offset="1" stop-color="#EBEBEB"/>
</linearGradient>
<linearGradient id="paint31_linear_1_4" x1="1008.96" y1="743.324" x2="1054.96" y2="727.824" gradientUnits="userSpaceOnUse">
<stop offset="0.195833" stop-color="#DADADA"/>
<stop offset="1" stop-color="#B5B5B5"/>
</linearGradient>
<linearGradient id="paint32_linear_1_4" x1="1006.46" y1="732.824" x2="1062.96" y2="732.824" gradientUnits="userSpaceOnUse">
<stop stop-color="#F9F9F9" stop-opacity="0.41"/>
<stop offset="1" stop-color="#EBEBEB"/>
</linearGradient>
<linearGradient id="paint33_linear_1_4" x1="1010.96" y1="699.324" x2="1056.96" y2="683.824" gradientUnits="userSpaceOnUse">
<stop offset="0.195833" stop-color="#DADADA"/>
<stop offset="1" stop-color="#B5B5B5"/>
</linearGradient>
<linearGradient id="paint34_linear_1_4" x1="1008.46" y1="688.824" x2="1064.96" y2="688.824" gradientUnits="userSpaceOnUse">
<stop stop-color="#F1F1F1" stop-opacity="0.44"/>
<stop offset="1" stop-color="#EBEBEB"/>
</linearGradient>
<linearGradient id="paint35_linear_1_4" x1="1014.96" y1="656.105" x2="1060.96" y2="640.605" gradientUnits="userSpaceOnUse">
<stop offset="0.195833" stop-color="#DADADA"/>
<stop offset="1" stop-color="#B5B5B5"/>
</linearGradient>
<linearGradient id="paint36_linear_1_4" x1="1012.46" y1="645.605" x2="1068.96" y2="645.605" gradientUnits="userSpaceOnUse">
<stop stop-color="#FEFEFE" stop-opacity="0.54"/>
<stop offset="1" stop-color="#EBEBEB"/>
</linearGradient>
<linearGradient id="paint37_linear_1_4" x1="881.956" y1="791.605" x2="909.456" y2="778.605" gradientUnits="userSpaceOnUse">
<stop stop-color="#E1E1E1"/>
<stop offset="1" stop-color="#9E9E9E"/>
</linearGradient>
<linearGradient id="paint38_linear_1_4" x1="869.956" y1="770.105" x2="916.456" y2="795.605" gradientUnits="userSpaceOnUse">
<stop stop-color="white"/>
<stop offset="1" stop-opacity="0"/>
<stop offset="1" stop-color="#F5F4F9"/>
</linearGradient>
<linearGradient id="paint39_linear_1_4" x1="875.456" y1="747.105" x2="903.956" y2="734.105" gradientUnits="userSpaceOnUse">
<stop stop-color="#E7E7E7"/>
<stop offset="1" stop-color="#9E9E9E"/>
</linearGradient>
<linearGradient id="paint40_linear_1_4" x1="866.956" y1="726.105" x2="913.456" y2="751.605" gradientUnits="userSpaceOnUse">
<stop stop-color="white"/>
<stop offset="1" stop-opacity="0"/>
<stop offset="1" stop-color="#F5F4F9"/>
</linearGradient>
<linearGradient id="paint41_linear_1_4" x1="872.956" y1="704.105" x2="903.456" y2="691.605" gradientUnits="userSpaceOnUse">
<stop stop-color="#ECECEC"/>
<stop offset="1" stop-color="#B1B1B1"/>
</linearGradient>
<linearGradient id="paint42_linear_1_4" x1="863.956" y1="682.105" x2="910.456" y2="707.605" gradientUnits="userSpaceOnUse">
<stop stop-color="white"/>
<stop offset="1" stop-opacity="0"/>
<stop offset="1" stop-color="#F5F4F9"/>
</linearGradient>
<linearGradient id="paint43_linear_1_4" x1="870.456" y1="660.105" x2="900.956" y2="646.605" gradientUnits="userSpaceOnUse">
<stop stop-color="#F2F3EE"/>
<stop offset="1" stop-color="#9E9E9E"/>
</linearGradient>
<linearGradient id="paint44_linear_1_4" x1="860.956" y1="639.105" x2="907.456" y2="664.605" gradientUnits="userSpaceOnUse">
<stop stop-color="white"/>
<stop offset="1" stop-opacity="0"/>
<stop offset="1" stop-color="#F5F4F9"/>
</linearGradient>
</defs>
</svg>
